<svg xmlns="http://www.w3.org/2000/svg" viewBox="0 0 303.09 41.5"><title>newlife-moda-logo</title><g id="Слой_2" data-name="Слой 2"><g id="Слой_1-2" data-name="Слой 1"><path d="M0,18.77V.33H3.85l14.9,14.5V.33h3.59V18.77H18.5L3.61,4.26V18.77Z"/><path d="M28.78,18.77V.33h20.5V2.5H32.53V8.14H48.22v2.17H32.53v6.28H49.94v2.18Z"/><path d="M60.17,18.77,52.62.33h3.84l4.32,12.08c.46,1.25.86,2.5,1.2,3.78l1.28-3.41L68.65.33h4.56l4,9.33a37.55,37.55,0,0,1,2.21,6.53c.37-1.2.83-2.54,1.4-4L85.32.33H89.1L81.3,18.77H77.7l-6-14-.89-2.17c-.27.81-.55,1.53-.83,2.17L64,18.77Z"/><path d="M92.29,18.77V.33H96V16.59h14v2.18Z"/><path d="M115.26,18.77V.33H119V18.77Z"/><path d="M125.83,18.77V.33H145V2.5H129.58V8.21h13.31v2.18H129.58v8.38Z"/><path d="M149.85,18.77V.33h20.5V2.5H153.6V8.14h15.69v2.17H153.6v6.28H171v2.18Z"/><path d="M176.79,18.77V16.19h4v2.58Z"/><path d="M187.1,18.77V.33h5.64l6.73,13.05,1.34,2.73c.34-.68.84-1.66,1.52-2.95L209.13.33h5.05V18.77h-3.61V3.34L202.3,18.77h-3.37L190.71,3.08V18.77Z"/><path d="M219.16,9.79a8.14,8.14,0,0,1,3.89-7.26A17.4,17.4,0,0,1,232.74,0a20,20,0,0,1,6.85,1.13,11.26,11.26,0,0,1,4.89,3.29,7.77,7.77,0,0,1,1.81,5.14,8,8,0,0,1-3.5,6.68q-3.84,2.84-10.07,2.84t-10.1-2.92A7.8,7.8,0,0,1,219.16,9.79Zm3.86,0a6,6,0,0,0,2.82,5.29A12.12,12.12,0,0,0,232.7,17a12,12,0,0,0,6.92-1.9,6.34,6.34,0,0,0,2.8-5.59A6.8,6.8,0,0,0,241,5.25,7.44,7.44,0,0,0,237.64,3a13.51,13.51,0,0,0-4.87-.86,12.09,12.09,0,0,0-7,1.89A6.58,6.58,0,0,0,223,9.82Z"/><path d="M251,18.77V.33h9.79a33.13,33.13,0,0,1,5.52.34,11.51,11.51,0,0,1,4.29,1.61,8.48,8.48,0,0,1,2.83,3,8.32,8.32,0,0,1,1,4.22,8.3,8.3,0,0,1-1.73,5.31,9.27,9.27,0,0,1-4.42,3.09,22.53,22.53,0,0,1-7.07.92Zm3.75-2.18h6a18.16,18.16,0,0,0,5.54-.64,5.62,5.62,0,0,0,2.9-2,7.49,7.49,0,0,0,1.35-4.49A6.41,6.41,0,0,0,269.11,5a6.92,6.92,0,0,0-3.67-2.14,22,22,0,0,0-4.79-.37h-5.94Z"/><path d="M276.53,18.77,287.47.33h4l11.61,18.44H298.8l-3.3-5.59H283.57l-3.08,5.59Zm8.13-7.58h9.67l-2.95-5.1a39.48,39.48,0,0,1-2-3.83,17,17,0,0,1-1.55,3.53Z"/><path d="M49.34,33.44h2a8.51,8.51,0,0,1,2.4.23,2.35,2.35,0,0,1,1.14.77,2,2,0,0,1,.44,1.28,1.85,1.85,0,0,1-.48,1.3,3.07,3.07,0,0,1-1.45.79l2.41,3.49H53.73L51.45,38h-.18V41.3H49.34Zm1.93,3.07h.61a2.85,2.85,0,0,0,1.27-.19.65.65,0,0,0,.35-.62.68.68,0,0,0-.17-.45,1,1,0,0,0-.47-.27,4.23,4.23,0,0,0-1.06-.08h-.53Z"/><path d="M63.07,33.44h5.55V34.9H65v1.42h3.63v1.44H65v2.07h3.63V41.3H63.07Z"/><path d="M81.4,34.5l-1.43,1a2.12,2.12,0,0,0-1.53-.81,1.11,1.11,0,0,0-.63.16.43.43,0,0,0-.24.35.55.55,0,0,0,.17.38,12.75,12.75,0,0,0,1.42,1c.74.48,1.19.78,1.34.9a3.37,3.37,0,0,1,.84.88,1.83,1.83,0,0,1,.24.92,1.91,1.91,0,0,1-.86,1.6,3.74,3.74,0,0,1-2.25.63,4.12,4.12,0,0,1-1.89-.41,3.56,3.56,0,0,1-1.38-1.3L76.82,39a2.08,2.08,0,0,0,1.69,1,1.51,1.51,0,0,0,.84-.23.63.63,0,0,0,.33-.52.79.79,0,0,0-.25-.53A7.06,7.06,0,0,0,78.3,38a10.31,10.31,0,0,1-2.14-1.62,1.6,1.6,0,0,1,.32-2.54,3.3,3.3,0,0,1,2-.58,3.88,3.88,0,0,1,1.44.27A5,5,0,0,1,81.4,34.5Z"/><path d="M92.18,33.44h2L98,41.3H96l-.8-1.62H91.1l-.83,1.62h-2Zm1,2.08-1.36,2.7h2.72Z"/><path d="M105.19,33.44h1.94v6.44h2.81V41.3h-4.75Z"/><path d="M117.08,33.44h5.54V34.9H119v1.42h3.62v1.44H119v2.07h3.62V41.3h-5.54Z"/><path d="M145,34.5l-1.43,1a2.16,2.16,0,0,0-1.54-.81,1.08,1.08,0,0,0-.62.16.43.43,0,0,0-.24.35.51.51,0,0,0,.17.38,12.75,12.75,0,0,0,1.42,1c.73.48,1.18.78,1.34.9a3.31,3.31,0,0,1,.83.88,1.74,1.74,0,0,1,.25.92,1.9,1.9,0,0,1-.87,1.6,3.7,3.7,0,0,1-2.25.63,4.18,4.18,0,0,1-1.89-.41,3.56,3.56,0,0,1-1.38-1.3l1.63-.75a2.07,2.07,0,0,0,1.68,1,1.48,1.48,0,0,0,.84-.23.62.62,0,0,0,.34-.52.8.8,0,0,0-.26-.53,6.83,6.83,0,0,0-1.12-.82,10.46,10.46,0,0,1-2.15-1.62,1.75,1.75,0,0,1-.48-1.13,1.72,1.72,0,0,1,.8-1.41,3.3,3.3,0,0,1,2-.58,3.93,3.93,0,0,1,1.45.27A5.18,5.18,0,0,1,145,34.5Z"/><path d="M151.69,33.44h5.62v1.47h-1.85V41.3h-2V34.91h-1.81Z"/><path d="M169.08,33.24a5.84,5.84,0,0,1,3.71,1.21,3.56,3.56,0,0,1,0,5.86,6.45,6.45,0,0,1-7.51,0,3.66,3.66,0,0,1-1.52-2.91,3.4,3.4,0,0,1,.71-2.08,4.78,4.78,0,0,1,1.94-1.5A6.35,6.35,0,0,1,169.08,33.24Zm0,1.46a3.74,3.74,0,0,0-2.37.76,2.36,2.36,0,0,0-1,1.93,2.34,2.34,0,0,0,1.21,2.07,4,4,0,0,0,2.16.59,3.68,3.68,0,0,0,2.34-.77,2.34,2.34,0,0,0,0-3.8A3.67,3.67,0,0,0,169.06,34.7Z"/><path d="M182,33.44H184a8.38,8.38,0,0,1,2.39.23,2.33,2.33,0,0,1,1.15.77,2,2,0,0,1,.43,1.28,1.85,1.85,0,0,1-.48,1.3,3.09,3.09,0,0,1-1.44.79l2.4,3.49h-2.11L184.06,38h-.18V41.3H182Zm1.93,3.07h.61a2.91,2.91,0,0,0,1.27-.19.64.64,0,0,0,.34-.62.63.63,0,0,0-.17-.45,1,1,0,0,0-.46-.27,4.29,4.29,0,0,0-1.06-.08h-.53Z"/><path d="M195.68,33.44h5.54V34.9H197.6v1.42h3.62v1.44H197.6v2.07h3.62V41.3h-5.54Z"/><path d="M218.28,33.44h1.85l4.36,5.17V33.44h1.93V41.3h-1.85l-4.35-5.16V41.3h-1.94Zm14,4.34a1.63,1.63,0,0,1-.72,1.33,2.93,2.93,0,0,1-3.42,0,1.59,1.59,0,0,1,0-2.65,2.78,2.78,0,0,1,1.71-.55,2.74,2.74,0,0,1,1.71.55A1.63,1.63,0,0,1,232.3,37.78Zm-4.85,2.59h4.85v.93h-4.85ZM231,37.79a.77.77,0,0,0-.34-.64,1.31,1.31,0,0,0-.83-.27,1.29,1.29,0,0,0-.83.27.76.76,0,0,0,0,1.28,1.27,1.27,0,0,0,.83.27,1.31,1.31,0,0,0,.83-.27A.78.78,0,0,0,231,37.79Z"/><path d="M240.8,33.44h2.9V41.3h-1.92V34.84h-2.1Z"/></g></g></svg>