<svg width="67" height="9" viewBox="0 0 67 9" fill="none" xmlns="http://www.w3.org/2000/svg">
<path d="M6.38883 8.73228V2.49998H10.0406V0.232193H0.078125V2.49998H3.72979V8.73228H6.38883ZM13.7638 0.232193H11.1048V8.73228H13.7638V0.232193ZM15.7097 0.232193V8.73228H18.1559V4.03576L22.7117 8.73228H24.9808V0.232193H22.5344V4.89288L18.085 0.232193H15.7097ZM30.2069 5.5179L33.2735 8.73228H36.6949L32.4227 4.30368L36.5354 0.232193H33.309L30.2069 3.42856H29.4977V0.232193H26.9274V8.73228H29.4977V5.5179H30.2069ZM41.9838 0C38.5271 0 36.453 1.96424 36.453 4.50005C36.453 7.03576 38.5271 9 41.9838 9C45.4228 9 47.4969 7.03576 47.4969 4.50005C47.4969 1.96424 45.4228 0 41.9838 0ZM41.9838 6.92858C40.2644 6.92858 39.1653 5.89291 39.1653 4.50005C39.1653 3.10719 40.2644 2.08934 41.9838 2.08934C43.6856 2.08934 44.8023 3.10719 44.8023 4.50005C44.8023 5.89291 43.6856 6.92858 41.9838 6.92858ZM57.2448 0.232193H48.7183V8.73228H51.2886V5.76791H56.8726V3.89284H51.2886V2.39279H57.2448V0.232193ZM66.9219 0.232193H58.3953V8.73228H60.9657V5.76791H66.5497V3.89284H60.9657V2.39279H66.9219V0.232193Z" fill="black"/>
</svg>
