<svg width="26" height="16" viewBox="0 0 26 16" fill="none" xmlns="http://www.w3.org/2000/svg">
<g clip-path="url(#clip0)">
<path d="M16.4444 1.71106H9.44444V14.2888H16.4444V1.71106Z" fill="#FF5F00"/>
<path d="M9.88889 8.00012C9.88889 5.44456 11.0889 3.1779 12.9333 1.71124C11.5778 0.644569 9.86666 0.00012207 8 0.00012207C3.57778 0.00012207 0 3.5779 0 8.00012C0 12.4223 3.57778 16.0001 8 16.0001C9.86666 16.0001 11.5778 15.3557 12.9333 14.289C11.0889 12.8446 9.88889 10.5557 9.88889 8.00012Z" fill="#EB001B"/>
<path d="M25.8889 8C25.8889 12.4222 22.3111 16 17.8889 16C16.0222 16 14.3111 15.3556 12.9556 14.2889C14.8222 12.8222 16 10.5556 16 8C16 5.44444 14.8 3.17778 12.9556 1.71111C14.3111 0.644447 16.0222 0 17.8889 0C22.3111 0 25.8889 3.6 25.8889 8Z" fill="#F79E1B"/>
</g>
<defs>
<clipPath id="clip0">
<rect width="25.8889" height="16" fill="white"/>
</clipPath>
</defs>
</svg>
