<svg width="54" height="16" viewBox="0 0 54 16" fill="none" xmlns="http://www.w3.org/2000/svg">
<path fill-rule="evenodd" clip-rule="evenodd" d="M8.80022 1.73546C9.21952 1.73295 10.4656 1.62072 10.9935 3.40216C11.349 4.60216 11.9154 6.56782 12.6926 9.29913H13.0091C13.8426 6.41959 14.4152 4.45393 14.7268 3.40216C15.2601 1.60216 16.5935 1.7355 17.1268 1.7355L21.2416 1.7355V14.5355H17.0477V6.99223H16.7665L14.4286 14.5355H11.2732L8.93529 6.98664H8.65406V14.5355H4.46015V1.7355L8.80022 1.73546ZM27.264 1.7355V9.28435H27.5985L30.4424 3.07699C30.9944 1.8417 32.171 1.7355 32.171 1.7355H36.2294V14.5355H31.9479V6.98664H31.6134L28.8253 13.194C28.2733 14.4237 27.0409 14.5355 27.0409 14.5355H22.9825V1.7355H27.264ZM51.0282 7.81814C50.431 9.51054 48.5555 10.7226 46.479 10.7226H41.989V14.5355H37.9176V7.81814H51.0282Z" fill="#0F754E"/>
<path fill-rule="evenodd" clip-rule="evenodd" d="M46.6754 1.73547H37.7041C37.9176 4.58519 40.3717 7.02473 42.9122 7.02473H51.3111C51.7958 4.65628 50.1273 1.73547 46.6754 1.73547Z" fill="url(#paint0_linear)"/>
<defs>
<linearGradient id="paint0_linear" x1="51.3935" y1="5.06264" x2="37.7041" y2="5.06264" gradientUnits="userSpaceOnUse">
<stop stop-color="#1F5CD7"/>
<stop offset="1" stop-color="#02AEFF"/>
</linearGradient>
</defs>
</svg>
