<svg width="51" height="16" viewBox="0 0 51 16" fill="none" xmlns="http://www.w3.org/2000/svg">
<g clip-path="url(#clip0)">
<path d="M22.3119 15.7692H18.3071L20.812 0.280762H24.8166L22.3119 15.7692Z" fill="#00579F"/>
<path d="M36.8298 0.659404C36.0398 0.346017 34.787 0 33.2378 0C29.2829 0 26.4979 2.10895 26.4808 5.12412C26.4479 7.3487 28.4748 8.58429 29.9907 9.32604C31.5401 10.084 32.0668 10.5787 32.0668 11.2543C32.051 12.2919 30.8148 12.7702 29.6617 12.7702C28.0628 12.7702 27.2061 12.5236 25.9042 11.9464L25.3768 11.6989L24.8164 15.1757C25.7557 15.6036 27.4862 15.9834 29.2829 16C33.485 16 36.2207 13.9237 36.2532 10.7105C36.2691 8.94739 35.1989 7.59639 32.8915 6.49242C31.4908 5.78374 30.633 5.30589 30.633 4.58078C30.6494 3.9216 31.3585 3.24643 32.9397 3.24643C34.2416 3.21336 35.1982 3.52631 35.9229 3.83948L36.2851 4.00394L36.8298 0.659404Z" fill="#00579F"/>
<path d="M42.1525 10.2822C42.4823 9.3924 43.7514 5.94865 43.7514 5.94865C43.7348 5.98172 44.0806 5.04244 44.2783 4.46582L44.5582 5.80039C44.5582 5.80039 45.3166 9.50781 45.4813 10.2822C44.8554 10.2822 42.9435 10.2822 42.1525 10.2822ZM47.0959 0.280762H43.9982C43.0429 0.280762 42.3172 0.560641 41.905 1.56584L35.9564 15.769H40.1585C40.1585 15.769 40.8503 13.8573 40.999 13.4456C41.46 13.4456 45.5478 13.4456 46.1409 13.4456C46.2559 13.9894 46.6187 15.769 46.6187 15.769H50.3268L47.0959 0.280762Z" fill="#00579F"/>
<path d="M14.9621 0.280762L11.0401 10.8424L10.6115 8.70036C9.88641 6.22875 7.61234 3.5434 5.07458 2.20816L8.66703 15.7528H12.902L19.1969 0.280762H14.9621Z" fill="#00579F"/>
<path d="M7.39816 0.280762H0.954796L0.888878 0.59371C5.9151 1.87901 9.24388 4.97718 10.6115 8.70102L9.21081 1.58271C8.9802 0.593491 8.27152 0.313392 7.39816 0.280762Z" fill="#FAA61A"/>
</g>
<defs>
<clipPath id="clip0">
<rect width="49.4379" height="16" fill="white" transform="translate(0.888878)"/>
</clipPath>
</defs>
</svg>
