<svg width="12" height="12" viewBox="0 0 12 12" fill="none" xmlns="http://www.w3.org/2000/svg">
<g clip-path="url(#clip0)">
<path d="M6.00203 2.91895C4.30053 2.91895 2.92303 4.29794 2.92303 5.99794C2.92303 7.69944 4.30203 9.07694 6.00203 9.07694C7.70353 9.07694 9.08103 7.69794 9.08103 5.99794C9.08103 4.29644 7.70203 2.91895 6.00203 2.91895V2.91895ZM6.00203 7.99644C4.89753 7.99644 4.00353 7.10194 4.00353 5.99794C4.00353 4.89394 4.89803 3.99944 6.00203 3.99944C7.10603 3.99944 8.00053 4.89394 8.00053 5.99794C8.00103 7.10194 7.10653 7.99644 6.00203 7.99644V7.99644Z" fill="black"/>
<path d="M8.47405 0.0379374C7.37005 -0.0135625 4.63555 -0.0110625 3.53055 0.0379374C2.55955 0.0834374 1.70305 0.317937 1.01255 1.00844C-0.141447 2.16243 0.0060526 3.71743 0.0060526 5.99793C0.0060526 8.33193 -0.123947 9.85092 1.01255 10.9874C2.17105 12.1454 3.74855 11.9939 6.00205 11.9939C8.31405 11.9939 9.11205 11.9954 9.92955 11.6789C11.0411 11.2474 11.8801 10.2539 11.9621 8.46943C12.0141 7.36493 12.0111 4.63093 11.9621 3.52593C11.8631 1.41944 10.7326 0.141937 8.47405 0.0379374V0.0379374ZM10.2216 10.2239C9.46505 10.9804 8.41555 10.9129 5.98755 10.9129C3.48755 10.9129 2.48505 10.9499 1.75355 10.2164C0.911053 9.37793 1.06355 8.03143 1.06355 5.98993C1.06355 3.22743 0.780053 1.23794 3.55255 1.09594C4.18955 1.07344 4.37705 1.06594 5.98055 1.06594L6.00305 1.08094C8.66755 1.08094 10.7581 0.801936 10.8836 3.57393C10.9121 4.20643 10.9186 4.39643 10.9186 5.99743C10.9181 8.46843 10.9651 9.47693 10.2216 10.2239V10.2239Z" fill="black"/>
<path d="M9.20296 3.51712C9.60033 3.51712 9.92246 3.19499 9.92246 2.79762C9.92246 2.40026 9.60033 2.07812 9.20296 2.07812C8.80559 2.07812 8.48346 2.40026 8.48346 2.79762C8.48346 3.19499 8.80559 3.51712 9.20296 3.51712Z" fill="black"/>
</g>
<defs>
<clipPath id="clip0">
<rect width="12" height="12" fill="white"/>
</clipPath>
</defs>
</svg>
