<svg width="20" height="15" viewBox="0 0 20 15" fill="none" xmlns="http://www.w3.org/2000/svg">
<path d="M19.5755 9.23674H13.6387V5.04952C13.6387 2.2984 10.5779 0.0581055 6.80107 0.0581055C3.02412 0.0581055 -0.0367126 2.2984 -0.0367126 5.04952V9.99689C-0.0367126 12.5308 2.55762 14.6224 5.90005 14.9401H5.96848C6.24591 14.9644 6.52751 14.9844 6.81312 14.9844H19.5755C19.7975 14.9844 19.9777 14.8043 19.9777 14.5822V9.63884C19.9777 9.41692 19.7975 9.23674 19.5755 9.23674ZM6.82116 0.866458C10.1393 0.866458 12.8545 2.74482 12.8545 5.05368C12.8545 7.3624 10.1556 9.24076 6.82116 9.24076C3.48676 9.24076 0.78785 7.3624 0.78785 5.05354C0.78785 2.74482 3.50684 0.866458 6.82116 0.866458ZM12.8545 7.39855V9.23674H10.5215C11.4321 8.82403 12.2266 8.19255 12.8342 7.39855H12.8545ZM19.1732 14.18H18.3688V12.1447C18.3688 11.9227 18.1886 11.7424 17.9667 11.7424C17.7446 11.7424 17.5644 11.9226 17.5644 12.1447V14.184H15.9555V13.0778C15.9555 12.8558 15.7753 12.6756 15.5532 12.6756C15.3312 12.6756 15.151 12.8558 15.151 13.0778V14.184H13.5422V13.0778C13.5422 12.8558 13.362 12.6756 13.1399 12.6756C12.9179 12.6756 12.7377 12.8558 12.7377 13.0778V14.184H11.1287V12.1447C11.1287 11.9227 10.9486 11.7424 10.7265 11.7424C10.5046 11.7424 10.3243 11.9226 10.3243 12.1447V14.184H8.78387V13.0778C8.78387 12.8558 8.60355 12.6756 8.38163 12.6756C8.15957 12.6756 7.97939 12.8558 7.97939 13.0778V14.184H6.82087C6.66809 14.184 6.51933 14.184 6.37043 14.184V13.0778C6.37043 12.8558 6.19026 12.6756 5.96819 12.6756C5.74613 12.6756 5.56595 12.8558 5.56595 13.0778V14.0874C2.85126 13.6852 0.807933 12.0039 0.807933 9.99288V7.39855C1.95828 8.97121 4.22281 10.0411 6.84124 10.0411H19.1732V14.18Z" fill="#767676"/>
</svg>
