<svg width="12" height="12" viewBox="0 0 12 12" fill="none" xmlns="http://www.w3.org/2000/svg">
<g clip-path="url(#clip0)">
<path d="M5.91449 5.78045C6.70862 5.78045 7.39618 5.49563 7.95813 4.93368C8.51989 4.37182 8.80481 3.68435 8.80481 2.89013C8.80481 2.09619 8.51999 1.40863 7.95804 0.846587C7.39609 0.28482 6.70853 0 5.91449 0C5.12027 0 4.43281 0.28482 3.87095 0.846678C3.30909 1.40854 3.02418 2.0961 3.02418 2.89013C3.02418 3.68435 3.30909 4.37191 3.87095 4.93377C4.43299 5.49553 5.12055 5.78045 5.91449 5.78045ZM4.36826 1.3439C4.79938 0.912779 5.30512 0.703215 5.91449 0.703215C6.52377 0.703215 7.0296 0.912779 7.46081 1.3439C7.89194 1.77511 8.10159 2.28094 8.10159 2.89013C8.10159 3.49951 7.89194 4.00524 7.46081 4.43645C7.0296 4.86767 6.52377 5.07723 5.91449 5.07723C5.3053 5.07723 4.79956 4.86758 4.36826 4.43645C3.93705 4.00533 3.72739 3.49951 3.72739 2.89013C3.72739 2.28094 3.93705 1.77511 4.36826 1.3439Z" fill="black"/>
<path d="M10.9718 9.2274C10.9556 8.99357 10.9228 8.7385 10.8745 8.46916C10.8258 8.1978 10.7631 7.94126 10.688 7.7068C10.6104 7.46446 10.505 7.22514 10.3746 6.9958C10.2393 6.75776 10.0804 6.55049 9.90207 6.37993C9.71558 6.20149 9.48724 6.05803 9.22321 5.95338C8.96008 5.84929 8.66849 5.79655 8.35657 5.79655C8.23407 5.79655 8.1156 5.84682 7.88681 5.99577C7.746 6.0876 7.5813 6.1938 7.39746 6.31126C7.24027 6.41142 7.02732 6.50526 6.76429 6.59022C6.50766 6.67326 6.24711 6.71538 5.98984 6.71538C5.73276 6.71538 5.47221 6.67326 5.2154 6.59022C4.95264 6.50535 4.7396 6.41151 4.58268 6.31135C4.40058 6.19499 4.23579 6.08879 4.09287 5.99568C3.86427 5.84673 3.7458 5.79646 3.6233 5.79646C3.31129 5.79646 3.01979 5.84929 2.75676 5.95348C2.4929 6.05794 2.26448 6.2014 2.0778 6.38002C1.89946 6.55067 1.74052 6.75786 1.60539 6.9958C1.47511 7.22514 1.36964 7.46437 1.29201 7.70689C1.21703 7.94136 1.15431 8.1978 1.10561 8.46916C1.05727 8.73814 1.02458 8.9933 1.00838 9.22767C0.992447 9.45683 0.98439 9.69532 0.98439 9.93629C0.98439 10.5627 1.18352 11.0698 1.57619 11.4438C1.964 11.8128 2.47706 12 3.10118 12H8.87924C9.50317 12 10.0162 11.8128 10.4041 11.4438C10.7969 11.0701 10.996 10.5628 10.996 9.93619C10.9959 9.6944 10.9878 9.45591 10.9718 9.2274ZM9.91928 10.9343C9.66302 11.1782 9.32281 11.2968 8.87915 11.2968H3.10118C2.65742 11.2968 2.31721 11.1782 2.06105 10.9344C1.80974 10.6952 1.68761 10.3686 1.68761 9.93629C1.68761 9.71143 1.69502 9.48942 1.70985 9.27628C1.72432 9.06718 1.75389 8.83747 1.79774 8.59339C1.84105 8.35234 1.89616 8.12611 1.96171 7.92131C2.02461 7.72493 2.1104 7.53047 2.21678 7.34315C2.31831 7.16462 2.43513 7.01146 2.56404 6.88804C2.68461 6.7726 2.83659 6.67811 3.01567 6.60725C3.18129 6.5417 3.36741 6.50581 3.56947 6.50041C3.5941 6.5135 3.63795 6.5385 3.70899 6.58482C3.85356 6.67903 4.02018 6.78651 4.20439 6.90416C4.41203 7.03654 4.67954 7.15611 4.99915 7.25929C5.3259 7.36494 5.65916 7.41859 5.98993 7.41859C6.32071 7.41859 6.65406 7.36494 6.98063 7.25938C7.30051 7.15602 7.56793 7.03654 7.77585 6.90397C7.96436 6.78349 8.12631 6.67912 8.27088 6.58482C8.34192 6.53859 8.38577 6.5135 8.4104 6.50041C8.61255 6.50581 8.79868 6.5417 8.96439 6.60725C9.14337 6.67811 9.29535 6.77269 9.41592 6.88804C9.54483 7.01137 9.66165 7.16453 9.76318 7.34324C9.86966 7.53047 9.95553 7.72502 10.0183 7.92121C10.084 8.12629 10.1392 8.35243 10.1824 8.5933C10.2262 8.83784 10.2558 9.06764 10.2703 9.27638V9.27656C10.2852 9.48887 10.2927 9.71079 10.2928 9.93629C10.2927 10.3687 10.1706 10.6952 9.91928 10.9343Z" fill="black"/>
</g>
<defs>
<clipPath id="clip0">
<rect width="12" height="12" fill="white"/>
</clipPath>
</defs>
</svg>
