<svg width="24" height="25" viewBox="0 0 24 25" fill="none" xmlns="http://www.w3.org/2000/svg">
<g clip-path="url(#clip0)">
<path d="M12.5494 12.9973L23.8864 1.66031C24.0375 1.50918 24.0375 1.26419 23.8864 1.11306C23.7353 0.961979 23.4903 0.961979 23.3392 1.11306L12.0022 12.4501L0.665153 1.11306C0.511408 0.964592 0.266424 0.968849 0.117904 1.12259C-0.0269385 1.27256 -0.0269385 1.51034 0.117904 1.66031L11.4549 12.9973L0.117904 24.3343C-0.03584 24.4829 -0.0400972 24.7278 0.108422 24.8816C0.256942 25.0353 0.501926 25.0396 0.655671 24.8911C0.658912 24.888 0.662056 24.8848 0.665153 24.8816L12.0022 13.5446L23.3392 24.8816C23.4929 25.0301 23.7379 25.0259 23.8864 24.8721C24.0313 24.7221 24.0313 24.4843 23.8864 24.3343L12.5494 12.9973Z" fill="black"/>
</g>
<defs>
<clipPath id="clip0">
<rect width="24" height="24" fill="white" transform="translate(0 1)"/>
</clipPath>
</defs>
</svg>
