<svg width="14" height="14" viewBox="0 0 14 14" fill="none" xmlns="http://www.w3.org/2000/svg">
<path d="M11.9766 1.8503H9.36797V0.710938C9.36797 0.660173 9.3478 0.611488 9.31191 0.575593C9.27601 0.539697 9.22733 0.519531 9.17656 0.519531H4.82344C4.77268 0.51956 4.72401 0.539735 4.68812 0.575625C4.65224 0.611514 4.63206 0.660182 4.63203 0.710938V1.8503H2.02344C1.97267 1.8503 1.92399 1.87046 1.88809 1.90636C1.8522 1.94225 1.83203 1.99094 1.83203 2.0417V3.42431C1.83206 3.47507 1.85224 3.52374 1.88812 3.55963C1.92401 3.59551 1.97268 3.61569 2.02344 3.61572H2.48522L3.00803 13.2993C3.01069 13.3483 3.03199 13.3943 3.06755 13.428C3.10311 13.4617 3.15023 13.4805 3.19922 13.4805H10.8008C10.8498 13.4805 10.8969 13.4617 10.9324 13.428C10.968 13.3943 10.9893 13.3483 10.9919 13.2993L11.5148 3.61572H11.9766C12.0273 3.61572 12.076 3.59555 12.1119 3.55966C12.1478 3.52376 12.168 3.47508 12.168 3.42431V2.0417C12.168 2.01656 12.163 1.99167 12.1534 1.96844C12.1438 1.94521 12.1297 1.9241 12.1119 1.90633C12.0942 1.88855 12.0731 1.87445 12.0498 1.86484C12.0266 1.85522 12.0017 1.85028 11.9766 1.8503ZM5.01484 0.902344H8.98516V1.8503H5.01484V0.902344ZM10.6194 13.0977H3.38056L2.86858 3.61572H11.1315L10.6194 13.0977ZM11.7852 3.23291H2.21484V2.23311H4.81972H4.82344C4.82344 2.23311 4.82584 2.23311 4.82716 2.23311H9.17295H9.17656C9.17656 2.23311 9.17908 2.23311 9.18028 2.23311H11.7852V3.23291Z" fill="#710202"/>
<path d="M5.10422 10.5611C5.15497 10.5611 5.20364 10.5409 5.23953 10.505C5.27542 10.4691 5.29559 10.4205 5.29562 10.3697V5.76044C5.29562 5.70967 5.27546 5.66099 5.23956 5.62509C5.20367 5.5892 5.15498 5.56903 5.10422 5.56903C5.05345 5.56903 5.00477 5.5892 4.96887 5.62509C4.93298 5.66099 4.91281 5.70967 4.91281 5.76044V10.3697C4.91281 10.4205 4.93298 10.4692 4.96887 10.5051C5.00477 10.541 5.05345 10.5611 5.10422 10.5611Z" fill="#710202"/>
<path d="M7 10.5611C7.05076 10.5611 7.09942 10.5409 7.13531 10.505C7.1712 10.4691 7.19138 10.4205 7.19141 10.3697V5.76044C7.19141 5.70967 7.17124 5.66099 7.13534 5.62509C7.09945 5.5892 7.05076 5.56903 7 5.56903C6.94924 5.56903 6.90055 5.5892 6.86466 5.62509C6.82876 5.66099 6.80859 5.70967 6.80859 5.76044V10.3697C6.80862 10.4205 6.8288 10.4691 6.86469 10.505C6.90058 10.5409 6.94924 10.5611 7 10.5611Z" fill="#710202"/>
<path d="M8.89578 10.5611C8.94655 10.5611 8.99523 10.541 9.03113 10.5051C9.06702 10.4692 9.08719 10.4205 9.08719 10.3697V5.76044C9.08719 5.70967 9.06702 5.66099 9.03113 5.62509C8.99523 5.5892 8.94655 5.56903 8.89578 5.56903C8.84502 5.56903 8.79633 5.5892 8.76044 5.62509C8.72454 5.66099 8.70438 5.70967 8.70438 5.76044V10.3697C8.70438 10.4205 8.72454 10.4692 8.76044 10.5051C8.79633 10.541 8.84502 10.5611 8.89578 10.5611Z" fill="#710202"/>
</svg>
