<svg width="13" height="12" viewBox="0 0 13 12" fill="none" xmlns="http://www.w3.org/2000/svg">
<g clip-path="url(#clip0)">
<path d="M6.5 0C3.1914 0 0.5 2.6914 0.5 6C0.5 9.3086 3.1914 12 6.5 12C9.8086 12 12.5 9.30813 12.5 6C12.5 2.69187 9.8086 0 6.5 0ZM6.5 11.0705C3.70449 11.0705 1.42951 8.79598 1.42951 6C1.42951 3.20402 3.70449 0.929508 6.5 0.929508C9.29551 0.929508 11.5705 3.20402 11.5705 6C11.5705 8.79598 9.29598 11.0705 6.5 11.0705Z" fill="black"/>
<path d="M8.82378 5.49343H6.96476V3.63441C6.96476 3.37787 6.75701 3.16965 6.5 3.16965C6.24298 3.16965 6.03523 3.37787 6.03523 3.63441V5.49343H4.17622C3.9192 5.49343 3.71145 5.70165 3.71145 5.95819C3.71145 6.21474 3.9192 6.42296 4.17622 6.42296H6.03523V8.28198C6.03523 8.53852 6.24298 8.74674 6.5 8.74674C6.75701 8.74674 6.96476 8.53852 6.96476 8.28198V6.42296H8.82378C9.0808 6.42296 9.28855 6.21474 9.28855 5.95819C9.28855 5.70165 9.0808 5.49343 8.82378 5.49343Z" fill="black"/>
</g>
<defs>
<clipPath id="clip0">
<rect width="12" height="12" fill="white" transform="translate(0.5)"/>
</clipPath>
</defs>
</svg>
