<svg width="12" height="12" viewBox="0 0 12 12" fill="none" xmlns="http://www.w3.org/2000/svg">
<path d="M10.3872 10.3643L9.74896 3.34125C9.73096 3.14775 9.56896 3 9.37471 3H8.24971V2.25C8.24971 1.647 8.01646 1.08075 7.59271 0.657C7.16896 0.23325 6.60271 0 5.99971 0C4.75921 0 3.74971 1.0095 3.74971 2.25V3H2.62471C2.43046 3 2.26846 3.14775 2.25121 3.34125L1.61296 10.3643C1.57471 10.7828 1.71571 11.2013 1.99921 11.5118C2.28271 11.8223 2.68621 12 3.10696 12H8.89321C9.31396 12 9.71746 11.8223 10.001 11.5118C10.2845 11.2013 10.4247 10.7828 10.3872 10.3643ZM4.49971 2.25C4.49971 1.42275 5.17246 0.75 5.99971 0.75C6.40246 0.75 6.77971 0.90525 7.06246 1.18725C7.34521 1.46925 7.49971 1.84725 7.49971 2.25V3H4.49971V2.25ZM9.44671 11.0063C9.30271 11.163 9.10621 11.25 8.89246 11.25H3.10696C2.89396 11.25 2.69671 11.163 2.55346 11.0055C2.40946 10.848 2.34121 10.6448 2.36071 10.4318L2.96746 3.75H3.74971V4.875C3.74971 5.082 3.91771 5.25 4.12471 5.25C4.33171 5.25 4.49971 5.082 4.49971 4.875V3.75H7.49971V4.875C7.49971 5.082 7.66771 5.25 7.87471 5.25C8.08171 5.25 8.24971 5.082 8.24971 4.875V3.75H9.03196L9.63946 10.4325C9.65896 10.6447 9.59071 10.8488 9.44671 11.0063Z" fill="black"/>
</svg>
