<svg width="24" height="24" viewBox="0 0 24 24" fill="none" xmlns="http://www.w3.org/2000/svg">
<path d="M20.5312 3.17194H16.0594V1.21875C16.0594 1.13173 16.0248 1.04827 15.9633 0.986731C15.9017 0.925195 15.8183 0.890625 15.7313 0.890625H8.26875C8.18174 0.890675 8.09831 0.925261 8.03679 0.986785C7.97526 1.04831 7.94067 1.13174 7.94062 1.21875V3.17194H3.46875C3.38173 3.17194 3.29827 3.20651 3.23673 3.26804C3.1752 3.32958 3.14063 3.41304 3.14062 3.50006V5.87025C3.14067 5.95726 3.17526 6.04069 3.23679 6.10221C3.29831 6.16374 3.38174 6.19833 3.46875 6.19837H4.26038L5.15663 22.7989C5.16118 22.8827 5.1977 22.9616 5.25866 23.0194C5.31962 23.0772 5.4004 23.1094 5.48438 23.1094H18.5156C18.5996 23.1094 18.6804 23.0772 18.7413 23.0194C18.8023 22.9617 18.8387 22.8827 18.8432 22.7989L19.7396 6.19837H20.5312C20.6183 6.19837 20.7017 6.16381 20.7633 6.10227C20.8248 6.04073 20.8594 5.95727 20.8594 5.87025V3.50006C20.8594 3.45697 20.8509 3.41429 20.8344 3.37447C20.818 3.33464 20.7938 3.29846 20.7633 3.26799C20.7329 3.23751 20.6967 3.21335 20.6568 3.19686C20.617 3.18038 20.5743 3.17191 20.5312 3.17194ZM8.59687 1.54688H15.4031V3.17194H8.59687V1.54688ZM18.2048 22.4531H5.79525L4.91756 6.19837H19.0826L18.2048 22.4531ZM20.2031 5.54213H3.79688V3.82819H8.26238H8.26875C8.26875 3.82819 8.27287 3.82819 8.27512 3.82819H15.7251H15.7313C15.7313 3.82819 15.7356 3.82819 15.7376 3.82819H20.2031V5.54213Z" fill="black"/>
<path d="M8.75 18.1048C8.83701 18.1048 8.92044 18.0702 8.98196 18.0086C9.04349 17.9471 9.07808 17.8637 9.07812 17.7767V9.87506C9.07812 9.78804 9.04356 9.70458 8.98202 9.64304C8.92048 9.58151 8.83702 9.54694 8.75 9.54694C8.66298 9.54694 8.57952 9.58151 8.51798 9.64304C8.45644 9.70458 8.42188 9.78804 8.42188 9.87506V17.7767C8.42188 17.8637 8.45644 17.9472 8.51798 18.0087C8.57952 18.0702 8.66298 18.1048 8.75 18.1048Z" fill="black"/>
<path d="M12 18.1048C12.087 18.1048 12.1704 18.0702 12.232 18.0086C12.2935 17.9471 12.3281 17.8637 12.3281 17.7767V9.87506C12.3281 9.78804 12.2936 9.70458 12.232 9.64304C12.1705 9.58151 12.087 9.54694 12 9.54694C11.913 9.54694 11.8295 9.58151 11.768 9.64304C11.7064 9.70458 11.6719 9.78804 11.6719 9.87506V17.7767C11.6719 17.8637 11.7065 17.9471 11.768 18.0086C11.8296 18.0702 11.913 18.1048 12 18.1048Z" fill="black"/>
<path d="M15.25 18.1048C15.337 18.1048 15.4205 18.0702 15.482 18.0087C15.5436 17.9472 15.5781 17.8637 15.5781 17.7767V9.87506C15.5781 9.78804 15.5436 9.70458 15.482 9.64304C15.4205 9.58151 15.337 9.54694 15.25 9.54694C15.163 9.54694 15.0795 9.58151 15.018 9.64304C14.9564 9.70458 14.9219 9.78804 14.9219 9.87506V17.7767C14.9219 17.8637 14.9564 17.9472 15.018 18.0087C15.0795 18.0702 15.163 18.1048 15.25 18.1048Z" fill="black"/>
</svg>
