<svg width="13" height="12" viewBox="0 0 13 12" fill="none" xmlns="http://www.w3.org/2000/svg">
<path d="M3.18585 11.7499C3.05437 11.7499 2.92382 11.7089 2.81239 11.6283C2.60484 11.4779 2.50788 11.2194 2.56437 10.9699L3.33636 7.56925L0.718255 5.27323C0.525806 5.10523 0.452287 4.83917 0.531299 4.59572C0.610311 4.35274 0.825283 4.1807 1.07981 4.15717L4.54388 3.84268L5.91346 0.637614C6.01444 0.402134 6.24443 0.250061 6.49996 0.250061C6.75549 0.250061 6.98548 0.402134 7.08646 0.637064L8.45603 3.84268L11.9196 4.15717C12.1746 4.18016 12.3896 4.35274 12.4686 4.59572C12.5476 4.83871 12.4746 5.10523 12.2821 5.27323L9.66401 7.56879L10.436 10.9693C10.4926 11.2194 10.3955 11.4779 10.1881 11.6279C9.98107 11.7779 9.70503 11.7894 9.48703 11.6584L6.49996 9.87333L3.51288 11.6594C3.4119 11.7194 3.29938 11.7499 3.18585 11.7499ZM6.49996 9.10435C6.61349 9.10435 6.72592 9.13484 6.82699 9.19481L9.64607 10.8809L8.91747 7.67124C8.86547 7.44281 8.94302 7.20431 9.11953 7.04977L11.5916 4.88174L8.32099 4.58474C8.08551 4.56322 7.88299 4.41518 7.79098 4.19819L6.49996 1.17358L5.20738 4.19865C5.11638 4.41417 4.91386 4.56221 4.67893 4.58373L1.40785 4.88073L3.87984 7.04876C4.0569 7.20376 4.13436 7.44181 4.0819 7.67078L3.35385 10.8803L6.17292 9.19481C6.27391 9.13484 6.38643 9.10435 6.49996 9.10435ZM4.51742 3.90467C4.51742 3.90467 4.51742 3.90522 4.51688 3.90567L4.51742 3.90467ZM8.48149 3.9032L8.48204 3.90421C8.48204 3.90366 8.48204 3.90366 8.48149 3.9032Z" fill="black"/>
</svg>
