<svg width="7" height="12" viewBox="0 0 7 12" fill="none" xmlns="http://www.w3.org/2000/svg">
<g clip-path="url(#clip0)">
<g clip-path="url(#clip1)">
<path d="M6.77031 5.6707L1.21996 0.1357C1.03811 -0.0455414 0.743686 -0.0452367 0.56214 0.136637C0.380735 0.318488 0.381203 0.613073 0.563078 0.794455L5.78306 6.00002L0.562891 11.2056C0.38104 11.387 0.380572 11.6814 0.561954 11.8632C0.652961 11.9544 0.772187 12 0.891413 12C1.01033 12 1.12909 11.9547 1.21994 11.8642L6.77031 6.32931C6.85789 6.24217 6.90704 6.12358 6.90704 6.00002C6.90704 5.87646 6.85775 5.758 6.77031 5.6707Z" fill="black"/>
</g>
</g>
<defs>
<clipPath id="clip0">
<rect width="12" height="6.66666" fill="white" transform="matrix(1.39071e-07 1 1 -1.39071e-07 0.333313 0)"/>
</clipPath>
<clipPath id="clip1">
<rect width="6.66666" height="12" fill="white" transform="translate(0.333313)"/>
</clipPath>
</defs>
</svg>
