<svg width="16" height="14" viewBox="0 0 16 14" fill="none" xmlns="http://www.w3.org/2000/svg">
<path fill-rule="evenodd" clip-rule="evenodd" d="M13.2211 6.1116C13.222 7.60936 12.6707 9.055 11.6726 10.1717L14.8979 13.3935C14.9647 13.4601 15.0022 13.5505 15.0022 13.6449C15.0022 13.7394 14.9647 13.8298 14.8979 13.8964C14.83 13.9625 14.7392 13.9996 14.6445 14C14.5496 14.0012 14.4582 13.9639 14.3912 13.8964L11.1696 10.6747C10.0529 11.673 8.60722 12.2243 7.10946 12.2232C3.74142 12.2232 0.997864 9.47951 0.997864 6.1116C0.997864 2.74369 3.73793 0 7.10946 0C10.4774 0 13.2211 2.74007 13.2211 6.1116ZM7.10593 0.713511C4.13047 0.713511 1.70788 3.1361 1.70788 6.11156C1.70788 9.08701 4.13047 11.5096 7.10593 11.5096C10.0815 11.5096 12.504 9.08701 12.504 6.11156C12.504 3.1361 10.0815 0.713511 7.10593 0.713511Z" fill="#ABABAB"/>
</svg>
