<svg width="24" height="24" viewBox="0 0 24 24" fill="none" xmlns="http://www.w3.org/2000/svg">
<path d="M12.0547 0C12.0483 0.00643031 12.0354 0.00643031 12.0161 0.00643031C5.50863 0.00643031 0.216476 5.29858 0.216476 11.806C0.216476 14.4618 1.12315 17.0403 2.78217 19.1173L1.06528 23.1041C0.923811 23.432 1.07814 23.8114 1.39965 23.9465C1.5154 23.9979 1.64401 24.0108 1.76618 23.9915L8.06146 22.8855C9.32181 23.342 10.6465 23.5735 11.984 23.5671C18.4914 23.5671 23.7836 18.2749 23.7836 11.7675C23.7964 5.27928 18.5429 0.00643031 12.0547 0ZM11.9904 22.2875C10.7493 22.2875 9.52114 22.0624 8.35726 21.6251C8.24794 21.5801 8.1322 21.5737 8.01645 21.593L2.71787 22.5189L4.11968 19.2588C4.21613 19.0337 4.17755 18.7701 4.01679 18.5836C3.25802 17.7026 2.65357 16.6995 2.22917 15.6128C1.75332 14.3975 1.50897 13.105 1.50897 11.7996C1.50897 5.99948 6.22882 1.28606 12.0225 1.28606C17.8034 1.2732 22.4975 5.94804 22.504 11.7289C22.504 11.7417 22.504 11.7546 22.504 11.7675C22.504 17.574 17.7841 22.2875 11.9904 22.2875Z" fill="#5F5F5F"/>
<path d="M11.4888 9.43311H8.01641C7.66274 9.43311 7.37337 9.72247 7.37337 10.0761C7.37337 10.4298 7.66274 10.7192 8.01641 10.7192H11.4888C11.8424 10.7192 12.1318 10.4298 12.1318 10.0761C12.1318 9.72247 11.8424 9.43311 11.4888 9.43311Z" fill="#5F5F5F"/>
<path d="M15.99 12.6482H8.01641C7.66274 12.6482 7.37337 12.9376 7.37337 13.2913C7.37337 13.6449 7.66274 13.9343 8.01641 13.9343H15.99C16.3437 13.9343 16.633 13.6449 16.633 13.2913C16.633 12.9376 16.3437 12.6482 15.99 12.6482Z" fill="#5F5F5F"/>
</svg>
