<svg width="24" height="24" viewBox="0 0 24 24" fill="none" xmlns="http://www.w3.org/2000/svg">
<path d="M12 22.3633C11.6583 22.3633 11.3289 22.2395 11.0722 22.0146C10.1027 21.1669 9.16791 20.3702 8.3432 19.6674L8.33899 19.6638C5.92108 17.6033 3.83313 15.8239 2.38037 14.071C0.756409 12.1114 0 10.2534 0 8.22369C0 6.25165 0.676208 4.43231 1.90393 3.10059C3.1463 1.75311 4.85101 1.01099 6.70459 1.01099C8.08997 1.01099 9.3587 1.44897 10.4755 2.31268C11.0391 2.74866 11.5499 3.28223 12 3.9046C12.4503 3.28223 12.9609 2.74866 13.5247 2.31268C14.6415 1.44897 15.9102 1.01099 17.2956 1.01099C19.149 1.01099 20.8539 1.75311 22.0963 3.10059C23.324 4.43231 24 6.25165 24 8.22369C24 10.2534 23.2438 12.1114 21.6198 14.0708C20.1671 15.8239 18.0793 17.6031 15.6617 19.6634C14.8356 20.3672 13.8994 21.1652 12.9276 22.015C12.6711 22.2395 12.3415 22.3633 12 22.3633ZM6.70459 2.41687C5.24835 2.41687 3.91058 2.99805 2.93738 4.05347C1.94971 5.12482 1.4057 6.60577 1.4057 8.22369C1.4057 9.93079 2.04016 11.4575 3.46271 13.174C4.83765 14.8331 6.88275 16.5759 9.25067 18.5939L9.25507 18.5975C10.0829 19.303 11.0213 20.1028 11.998 20.9568C12.9805 20.1012 13.9204 19.3001 14.7499 18.5935C17.1176 16.5755 19.1625 14.8331 20.5375 13.174C21.9598 11.4575 22.5943 9.93079 22.5943 8.22369C22.5943 6.60577 22.0503 5.12482 21.0626 4.05347C20.0896 2.99805 18.7516 2.41687 17.2956 2.41687C16.2288 2.41687 15.2494 2.75598 14.3846 3.42468C13.6139 4.02087 13.077 4.77454 12.7623 5.30188C12.6004 5.57306 12.3155 5.73492 12 5.73492C11.6845 5.73492 11.3996 5.57306 11.2377 5.30188C10.9232 4.77454 10.3863 4.02087 9.61542 3.42468C8.75061 2.75598 7.77118 2.41687 6.70459 2.41687Z" fill="black"/>
</svg>
