<svg width="24" height="24" viewBox="0 0 24 24" fill="none" xmlns="http://www.w3.org/2000/svg">
<path fill-rule="evenodd" clip-rule="evenodd" d="M23.8454 7.90499C23.7281 7.79143 23.5642 7.73759 23.4011 7.75909H17.0343V4.98674C17.0343 2.24685 14.7804 0.0257568 12.0001 0.0257568C9.2197 0.0257568 6.96581 2.24685 6.96581 4.98674V7.75909H0.598861C0.421163 7.75909 0.243523 7.75909 0.154646 7.90499C0.0352739 8.01804 -0.0201042 8.1817 0.00659291 8.34274L2.22761 20.3075C2.53789 21.9766 4.00033 23.1979 5.72198 23.2258H18.278C20.0046 23.1839 21.464 21.9529 21.7724 20.2784L23.9934 8.34274C24.0201 8.1817 23.9647 8.01804 23.8454 7.90499ZM8.15027 4.98674C8.15027 2.89155 9.87385 1.19305 12 1.19305C14.1261 1.19305 15.8497 2.89155 15.8497 4.98674V7.75909H8.15027V4.98674ZM18.278 22.0585C19.4179 22.0477 20.3884 21.2384 20.5878 20.1324L22.6904 8.92639H1.30957L3.41212 20.1324C3.61159 21.2385 4.58209 22.0477 5.72196 22.0585H18.278Z" fill="black"/>
<path d="M16.4 14.4257C16.6209 14.4257 16.8 14.1392 16.8 13.7857V11.8657C16.8 11.5122 16.6209 11.2257 16.4 11.2257C16.1791 11.2257 16 11.5122 16 11.8657V13.7857C16 14.1392 16.1791 14.4257 16.4 14.4257Z" fill="black"/>
<path d="M7.59995 14.4257C7.82087 14.4257 7.99995 14.1392 7.99995 13.7857V11.8657C7.99995 11.5122 7.82087 11.2257 7.59995 11.2257C7.37903 11.2257 7.19995 11.5122 7.19995 11.8657V13.7857C7.19995 14.1392 7.37903 14.4257 7.59995 14.4257Z" fill="black"/>
</svg>
