<svg width="24" height="22" viewBox="0 0 24 22" fill="none" xmlns="http://www.w3.org/2000/svg">
<path d="M22 2.99922V2.19922C22 1.97832 21.8209 1.79922 21.6 1.79922H19.2C18.9791 1.79922 18.8 1.97832 18.8 2.19922V2.99922H17.832L16.808 1.20962C16.4527 0.585569 15.7901 0.199919 15.072 0.199219H8.928C8.21045 0.199969 7.5483 0.585119 7.1928 1.20842L6.168 2.99922H6V1.79922C6 1.57832 5.8209 1.39922 5.6 1.39922H2.4C2.1791 1.39922 2 1.57832 2 1.79922V2.99922C0.896 3.00052 0.0013 3.89522 0 4.99922V16.1992C0.0013 17.3032 0.896 18.1979 2 18.1992H13.1728C14.2764 21.0872 17.5123 22.5338 20.4003 21.4302C22.5687 20.6015 24.0007 18.5206 24 16.1992V4.99922C23.9987 3.89517 23.104 3.00052 22 2.99922ZM19.6 2.59922H21.2V2.99922H19.6V2.59922ZM2.8 2.19922H5.2V2.99922H2.8V2.19922ZM13.1888 14.16C13.1488 14.2676 13.1056 14.376 13.0688 14.4864C13.044 14.5644 13.0224 14.6436 13.0008 14.7232C12.9836 14.786 12.9608 14.8472 12.9468 14.9112C12.6346 14.9699 12.3176 14.9993 12 14.9992C9.1281 14.9992 6.8 12.6711 6.8 9.79923C6.8 6.92732 9.1281 4.59922 12 4.59922C14.8719 4.59922 17.2 6.92732 17.2 9.79923C17.2003 10.1179 17.1708 10.436 17.112 10.7492C17.0476 10.7644 16.9864 10.7864 16.9228 10.8036C16.8428 10.8248 16.7672 10.846 16.6904 10.8704C16.5776 10.9064 16.4668 10.9504 16.3568 10.9904C16.312 11.008 16.2648 11.0212 16.2204 11.04C16.9075 8.70753 15.5737 6.25967 13.2411 5.57257C10.9087 4.88547 8.46075 6.21932 7.7737 8.55182C7.0866 10.8843 8.42045 13.3322 10.753 14.0193C11.5647 14.2584 12.4282 14.2585 13.24 14.0196C13.2208 14.0656 13.2072 14.1136 13.1888 14.16ZM15.0476 11.7148C15.0344 11.7244 15.0236 11.7368 15.0108 11.7464C14.6091 12.0505 14.2513 12.4084 13.9472 12.81C13.9376 12.8228 13.9252 12.8336 13.9156 12.8468C12.2323 13.9049 10.01 13.3981 8.9519 11.7148C7.8938 10.0315 8.4006 7.80922 10.0839 6.75112C11.7672 5.69302 13.9896 6.19982 15.0477 7.88312C15.7838 9.05422 15.7838 10.5436 15.0476 11.7148ZM18.4 20.9992C15.7491 20.9992 13.6 18.8502 13.6 16.1992C13.5985 15.904 13.6253 15.6093 13.68 15.3192C13.8092 14.6157 14.0964 13.9507 14.52 13.3744C14.5276 13.3642 14.5346 13.3535 14.5408 13.3424C14.6548 13.1925 14.7775 13.0494 14.9084 12.914C14.9408 12.8796 14.9676 12.8396 15.0012 12.806C15.1679 12.6391 15.347 12.4849 15.5368 12.3448C15.5498 12.3377 15.5623 12.3295 15.574 12.3204C16.1514 11.8966 16.8174 11.6093 17.522 11.4804C17.8114 11.4254 18.1054 11.3982 18.4 11.3992C21.051 11.3992 23.2 13.5483 23.2 16.1992C23.2 18.8502 21.051 20.9992 18.4 20.9992ZM23.2 13.3192C23.16 13.2524 23.116 13.188 23.0732 13.1232C23.058 13.098 23.0436 13.074 23.028 13.0512C22.9392 12.9212 22.8452 12.7964 22.748 12.6748C22.724 12.6456 22.6996 12.6172 22.6752 12.5884C22.5864 12.4836 22.494 12.3816 22.398 12.2836C22.38 12.2652 22.3628 12.2456 22.3444 12.2276C22.2336 12.1176 22.1176 12.0132 21.998 11.9124C21.968 11.8876 21.9376 11.8632 21.9072 11.8388C21.7984 11.7512 21.6864 11.6668 21.5708 11.5872C21.5524 11.5744 21.5352 11.5608 21.5168 11.5472C21.3864 11.4596 21.2516 11.3784 21.1136 11.302C21.0792 11.2828 21.0444 11.2644 21.0092 11.2456C20.8804 11.1776 20.7492 11.1136 20.6148 11.0556C20.5992 11.0488 20.5844 11.0412 20.5692 11.0348C20.422 10.9728 20.2712 10.9188 20.118 10.8692C20.078 10.8568 20.0416 10.8452 20.0028 10.834C19.8548 10.7896 19.7048 10.7496 19.5516 10.7176L19.5232 10.7108C19.3632 10.678 19.1988 10.6544 19.0332 10.6356L18.9104 10.6232C18.7408 10.6096 18.5716 10.5992 18.4 10.5992C18.2428 10.5992 18.0892 10.608 17.9376 10.62C17.9774 10.3482 17.9982 10.0739 18 9.79923C18 6.48552 15.3137 3.79922 12 3.79922C8.6863 3.79922 6 6.48552 6 9.79923C6 13.1129 8.6863 15.7992 12 15.7992C12.2748 15.7975 12.5493 15.7765 12.8212 15.7364C12.8088 15.8884 12.8 16.042 12.8 16.1992C12.8 16.3812 12.8116 16.5616 12.8292 16.7412C12.834 16.7924 12.8408 16.8432 12.8468 16.894C12.8644 17.0332 12.8869 17.1714 12.9144 17.3084C12.9204 17.3384 12.9228 17.3692 12.9292 17.3992H2C1.33725 17.3992 0.8 16.862 0.8 16.1992V4.99922C0.8 4.33647 1.33725 3.79922 2 3.79922H6.4C6.5432 3.79952 6.6756 3.72322 6.7472 3.59922L7.888 1.60602C8.10075 1.23187 8.4976 1.00032 8.928 0.999219H15.072C15.5024 1.00032 15.8993 1.23187 16.112 1.60602L17.252 3.59802C17.3235 3.72272 17.4563 3.79952 17.6 3.79922H22C22.6628 3.79922 23.2 4.33647 23.2 4.99922V13.3192Z" fill="black"/>
<path d="M4.00001 4.99902C3.77911 4.99902 3.60001 5.17812 3.60001 5.39902V14.999C3.60001 15.2199 3.77911 15.399 4.00001 15.399C4.22091 15.399 4.40001 15.2199 4.40001 14.999V5.39902C4.40001 5.17807 4.22091 4.99902 4.00001 4.99902Z" fill="black"/>
<path d="M20 4.59912C19.3372 4.59912 18.8 5.13637 18.8 5.79912C18.8 6.46187 19.3372 6.99912 20 6.99912C20.6627 6.99912 21.2 6.46187 21.2 5.79912C21.2 5.13637 20.6627 4.59912 20 4.59912ZM20 6.19912C19.7791 6.19912 19.6 6.02002 19.6 5.79912C19.6 5.57822 19.7791 5.39912 20 5.39912C20.2209 5.39912 20.4 5.57822 20.4 5.79912C20.4 6.02002 20.2209 6.19912 20 6.19912Z" fill="black"/>
<path d="M18.8 15.7991V12.9991C18.8 12.7782 18.6209 12.5991 18.4 12.5991C18.1791 12.5991 18 12.7782 18 12.9991V15.7991H15.2C14.9791 15.7991 14.8 15.9782 14.8 16.1991C14.8 16.42 14.9791 16.5991 15.2 16.5991H18V19.3991C18 19.62 18.1791 19.7991 18.4 19.7991C18.6209 19.7991 18.8 19.62 18.8 19.3991V16.5991H21.6C21.8209 16.5991 22 16.42 22 16.1991C22 15.9782 21.8209 15.7991 21.6 15.7991H18.8Z" fill="black"/>
</svg>
