<svg width="13" height="13" viewBox="0 0 13 13" fill="none" xmlns="http://www.w3.org/2000/svg">
<g clip-path="url(#clip0)">
<g clip-path="url(#clip1)">
<path d="M6.67816 5.90002H5.47815V9.50002H6.67816V5.90002Z" fill="#979797"/>
<path d="M6.07811 0.5C2.76313 0.5 0.078125 3.18501 0.078125 6.49999C0.078125 9.81497 2.76313 12.5 6.07811 12.5C9.39309 12.5 12.0781 9.81499 12.0781 6.49999C12.0781 3.18498 9.39312 0.5 6.07811 0.5ZM6.07811 11.3C3.43211 11.3 1.27811 9.14598 1.27811 6.49999C1.27811 3.85399 3.43211 1.70001 6.07811 1.70001C8.72411 1.70001 10.8781 3.85399 10.8781 6.49999C10.8781 9.14598 8.72411 11.3 6.07811 11.3Z" fill="#979797"/>
<path d="M6.67816 3.5H5.47815V4.70001H6.67816V3.5Z" fill="#979797"/>
</g>
</g>
<defs>
<clipPath id="clip0">
<rect width="12" height="12" fill="white" transform="matrix(-1 0 0 1 12.0781 0.5)"/>
</clipPath>
<clipPath id="clip1">
<rect width="12" height="12" fill="white" transform="translate(0.078125 0.5)"/>
</clipPath>
</defs>
</svg>
