<svg width="8" height="6" viewBox="0 0 8 6" fill="none" xmlns="http://www.w3.org/2000/svg">
<g clip-path="url(#clip0)">
<g clip-path="url(#clip1)">
<path d="M4.21953 5.06912L7.90953 1.36889C8.03036 1.24765 8.03016 1.05137 7.90891 0.930343C7.78767 0.809406 7.59128 0.809718 7.47036 0.930968L3.99999 4.41095L0.529629 0.930842C0.408692 0.809609 0.212427 0.809296 0.0911775 0.930217C0.0303965 0.990889 5.71196e-06 1.07037 5.70849e-06 1.14986C5.70502e-06 1.22914 0.0301933 1.30831 0.0905523 1.36887L3.78046 5.06912C3.83855 5.12751 3.91761 5.16028 3.99999 5.16028C4.08236 5.16028 4.16133 5.12742 4.21953 5.06912Z" fill="black"/>
</g>
</g>
<defs>
<clipPath id="clip0">
<rect width="8" height="4.44444" fill="white" transform="matrix(-1 0 0 1 8 0.777832)"/>
</clipPath>
<clipPath id="clip1">
<rect width="4.44444" height="8" fill="white" transform="translate(8 0.777832) rotate(90)"/>
</clipPath>
</defs>
</svg>
