<svg width="12" height="12" viewBox="0 0 12 12" fill="none" xmlns="http://www.w3.org/2000/svg">
<g clip-path="url(#clip0)">
<path d="M6.24999 12H0.749992C0.336492 12 -7.62939e-06 11.6635 -7.62939e-06 11.25V10.75C-7.62939e-06 10.3365 0.336492 10 0.749992 10H6.24999C6.66349 10 6.99999 10.3365 6.99999 10.75V11.25C6.99999 11.6635 6.66349 12 6.24999 12ZM0.749992 10.5C0.611992 10.5 0.499992 10.6125 0.499992 10.75V11.25C0.499992 11.3875 0.611992 11.5 0.749992 11.5H6.24999C6.38799 11.5 6.49999 11.3875 6.49999 11.25V10.75C6.49999 10.6125 6.38799 10.5 6.24999 10.5H0.749992Z" fill="black"/>
<path d="M5.3465 6.31398C5.23 6.31398 5.1185 6.27998 5.0265 6.18798L3.2715 4.43298C2.9645 4.12598 3.302 3.59498 3.4125 3.42098C3.62 3.09498 3.943 2.70598 4.323 2.32598C4.7035 1.94498 5.093 1.62098 5.419 1.41348C5.594 1.30198 6.1255 0.964483 6.4325 1.27148L8.1875 3.02648C8.495 3.33398 8.1565 3.86598 8.0455 4.04048C7.8375 4.36698 7.5135 4.75648 7.1325 5.13698C6.7525 5.51698 6.3635 5.83998 6.038 6.04698C5.9165 6.12498 5.619 6.31398 5.3465 6.31398ZM6.0795 1.62498C5.992 1.62848 5.4435 1.91298 4.6785 2.67748C3.9135 3.44248 3.6285 3.99148 3.6465 4.11548L5.3805 5.83448C5.4685 5.83098 6.017 5.54648 6.7825 4.78148C7.5185 4.04498 7.8095 3.50948 7.8145 3.35948L6.0795 1.62498Z" fill="black"/>
<path d="M4.5015 7.4595C4.3105 7.4595 4.119 7.3865 3.9735 7.241L2.2185 5.486C2.0775 5.3455 2 5.158 2 4.9585C2 4.759 2.0775 4.5715 2.219 4.4305L2.57 4.0795C2.861 3.7885 3.3345 3.7885 3.6255 4.0795L5.3805 5.8345C5.6715 6.1255 5.6715 6.599 5.3805 6.89L5.0295 7.241C4.8835 7.3865 4.6925 7.4595 4.5015 7.4595ZM3.0975 4.361C3.0345 4.361 2.9715 4.3855 2.923 4.4335L2.5725 4.784C2.5255 4.831 2.5 4.8925 2.5 4.9585C2.5 5.0245 2.5255 5.086 2.5725 5.133L4.3275 6.888C4.424 6.984 4.58 6.9835 4.676 6.888L5.027 6.537C5.123 6.441 5.123 6.2845 5.027 6.1885L3.272 4.4335C3.2235 4.3855 3.1605 4.361 3.0975 4.361Z" fill="black"/>
<path d="M8.3625 3.59799C8.1715 3.59799 7.98 3.52499 7.8345 3.37949L6.0795 1.62449C5.7885 1.33349 5.7885 0.860494 6.0795 0.569494L6.4305 0.218494C6.7215 -0.0725059 7.195 -0.0725059 7.486 0.218494L9.241 1.97349C9.532 2.26449 9.532 2.73799 9.241 3.02899L8.89 3.37999C8.7445 3.52549 8.5535 3.59799 8.3625 3.59799ZM6.9585 0.500494C6.8955 0.500494 6.8325 0.524494 6.784 0.572494L6.433 0.923494C6.337 1.01949 6.337 1.17549 6.433 1.27149L8.188 3.02649C8.284 3.12199 8.4405 3.12199 8.5365 3.02649L8.8875 2.67599C8.9835 2.57999 8.9835 2.42349 8.8875 2.32749L7.1325 0.572494C7.0845 0.524494 7.0215 0.500494 6.9585 0.500494ZM9.064 2.85249H9.069H9.064Z" fill="black"/>
<path d="M11.0485 10.0015C10.747 10.0015 10.4225 9.829 10.0775 9.484C9.7325 9.139 7.704 6.9065 6.445 5.422C6.3555 5.317 6.3685 5.159 6.474 5.07C6.579 4.9805 6.737 4.993 6.8265 5.099C8.1395 6.647 10.133 8.8325 10.431 9.1305C10.994 9.6945 11.2135 9.475 11.3445 9.345C11.4045 9.285 11.487 9.203 11.4985 9.0855C11.5155 8.915 11.388 8.689 11.1305 8.431C10.835 8.135 8.653 6.1445 7.099 4.8255C6.9935 4.736 6.9805 4.5785 7.07 4.4735C7.16 4.367 7.3175 4.3555 7.4225 4.4445C8.913 5.709 11.143 7.735 11.485 8.0775C11.8575 8.45 12.03 8.806 11.997 9.135C11.9675 9.4295 11.786 9.611 11.699 9.698C11.496 9.9005 11.279 10.0015 11.0485 10.0015Z" fill="black"/>
</g>
<defs>
<clipPath id="clip0">
<rect width="12" height="12" fill="white"/>
</clipPath>
</defs>
</svg>
