<svg width="12" height="12" viewBox="0 0 12 12" fill="none" xmlns="http://www.w3.org/2000/svg">
<path fill-rule="evenodd" clip-rule="evenodd" d="M10.4738 5.23851C10.4747 6.52231 10.0022 7.76143 9.14694 8.71863L11.9107 11.4801C11.9679 11.5372 12 11.6147 12 11.6956C12 11.7766 11.9679 11.8541 11.9107 11.9112C11.8525 11.9678 11.7747 11.9996 11.6936 12C11.6122 12.001 11.5339 11.969 11.4765 11.9112L8.71596 9.14975C7.75905 10.0054 6.52031 10.478 5.23691 10.477C2.35089 10.477 0 8.12529 0 5.23851C0 2.35173 2.34791 0 5.23691 0C8.1228 0 10.4738 2.34863 10.4738 5.23851ZM5.23388 0.611533C2.68427 0.611533 0.608398 2.68804 0.608398 5.23843C0.608398 7.78882 2.68427 9.86533 5.23388 9.86533C7.78361 9.86533 9.85936 7.78882 9.85936 5.23843C9.85936 2.68804 7.78361 0.611533 5.23388 0.611533Z" fill="#979797"/>
</svg>
