<svg width="14" height="14" viewBox="0 0 14 14" fill="none" xmlns="http://www.w3.org/2000/svg">
<g clip-path="url(#clip0)">
<path d="M13.6587 2.54248H10.4312C10.7853 2.02237 10.8195 1.32016 10.4621 0.755756C9.98248 -0.00172067 8.97563 -0.227853 8.21818 0.251783C8.0265 0.373189 7.70655 0.657045 7.14379 1.71555C7.09348 1.81043 7.04535 1.9034 6.99996 1.99281C6.95457 1.9034 6.90645 1.81043 6.85614 1.71555C6.29337 0.657018 5.97345 0.373189 5.78174 0.251783C5.0243 -0.227853 4.01744 -0.00169334 3.53781 0.755756C3.30539 1.12274 3.22989 1.55832 3.32507 1.98218C3.37074 2.18589 3.45332 2.37513 3.56761 2.54248H0.341187V6.51323H0.820823V14H13.1791V6.51323H13.6587V2.54248ZM8.6568 0.945002C8.78751 0.86215 8.93571 0.819768 9.08667 0.819768C9.14574 0.819768 9.20562 0.82633 9.26468 0.839455C9.47468 0.88676 9.65381 1.01281 9.7692 1.19468C10.0068 1.57013 9.89471 2.06916 9.51928 2.3068C9.29342 2.45008 8.4654 2.52993 7.64096 2.54223C8.00463 1.80223 8.43094 1.08801 8.6568 0.945002ZM4.23075 1.19462C4.34614 1.01279 4.52527 0.886732 4.73527 0.8394C4.79433 0.826275 4.85422 0.819713 4.91328 0.819713C5.06422 0.819713 5.21242 0.862096 5.34315 0.944947C5.56901 1.08795 5.99533 1.8022 6.35903 2.54218C5.94693 2.53589 5.53376 2.51292 5.19549 2.47354C4.85723 2.43417 4.59363 2.37839 4.4807 2.30675C4.29887 2.19163 4.17251 2.01253 4.12548 1.8025C4.07815 1.5925 4.11561 1.37649 4.23075 1.19462ZM5.34012 13.1797H1.64116V6.51323H5.34012V13.1797ZM5.34012 5.69289H1.16155V3.36282H5.34014V5.69289H5.34012ZM7.83947 13.1797H6.16048V3.36282H7.83947V13.1797ZM12.3588 13.1797H8.65981V6.51323H12.3588V13.1797ZM12.8384 5.69289H8.65981V3.36282H12.8384V5.69289Z" fill="#710202"/>
</g>
<defs>
<clipPath id="clip0">
<rect width="14" height="14" fill="white"/>
</clipPath>
</defs>
</svg>
