<svg width="13" height="12" viewBox="0 0 13 12" fill="none" xmlns="http://www.w3.org/2000/svg">
<g clip-path="url(#clip0)">
<path d="M1.70001 7.19999C2.36275 7.19999 2.90002 6.66273 2.90002 5.99998C2.90002 5.33723 2.36275 4.79997 1.70001 4.79997C1.03726 4.79997 0.5 5.33723 0.5 5.99998C0.5 6.66273 1.03726 7.19999 1.70001 7.19999Z" fill="black"/>
<path d="M6.49998 7.19999C7.16273 7.19999 7.69999 6.66273 7.69999 5.99998C7.69999 5.33723 7.16273 4.79997 6.49998 4.79997C5.83723 4.79997 5.29997 5.33723 5.29997 5.99998C5.29997 6.66273 5.83723 7.19999 6.49998 7.19999Z" fill="black"/>
<path d="M11.3 7.19999C11.9627 7.19999 12.5 6.66273 12.5 5.99998C12.5 5.33723 11.9627 4.79997 11.3 4.79997C10.6372 4.79997 10.1 5.33723 10.1 5.99998C10.1 6.66273 10.6372 7.19999 11.3 7.19999Z" fill="black"/>
</g>
<defs>
<clipPath id="clip0">
<rect width="12" height="12" fill="white" transform="translate(0.5)"/>
</clipPath>
</defs>
</svg>
