<svg width="12" height="12" viewBox="0 0 12 12" fill="none" xmlns="http://www.w3.org/2000/svg">
<path fill-rule="evenodd" clip-rule="evenodd" d="M9.97948 2.00404C8.92699 0.950317 7.52727 0.369759 6.03608 0.369141C2.96334 0.369141 0.462578 2.86983 0.461342 5.9434C0.46093 6.92592 0.717598 7.88502 1.20546 8.73042L0.414581 11.6191L3.36983 10.8439C4.18413 11.2881 5.10087 11.5222 6.03381 11.5225H6.03615C9.10854 11.5225 11.6096 9.02156 11.6107 5.94786C11.6114 4.45825 11.032 3.0577 9.97948 2.00404ZM6.03608 10.581H6.03416C5.20277 10.5807 4.38737 10.3572 3.67587 9.93514L3.50675 9.83468L1.75306 10.2947L2.22115 8.58492L2.11094 8.40962C1.64711 7.67189 1.40218 6.81921 1.4026 5.94374C1.40356 3.38908 3.48217 1.31067 6.03793 1.31067C7.27554 1.31108 8.43892 1.79366 9.31371 2.66947C10.1885 3.54529 10.67 4.70943 10.6696 5.94752C10.6685 8.50239 8.58999 10.581 6.03608 10.581V10.581ZM8.57763 7.11076C8.43838 7.041 7.75352 6.70413 7.6258 6.65758C7.49822 6.61109 7.40525 6.58795 7.31248 6.72734C7.21958 6.86673 6.95268 7.18053 6.87138 7.27343C6.79008 7.3664 6.70892 7.37807 6.5696 7.30831C6.43028 7.23862 5.98149 7.09147 5.44941 6.61693C5.03536 6.24758 4.75583 5.79144 4.67453 5.65205C4.59337 5.51253 4.67384 5.44441 4.73564 5.36778C4.88643 5.18053 5.03742 4.98422 5.08384 4.89132C5.13032 4.79835 5.10705 4.71698 5.07217 4.64728C5.03742 4.57759 4.75885 3.89197 4.64281 3.61299C4.52965 3.34149 4.41491 3.37816 4.32935 3.3739C4.24819 3.36985 4.15529 3.36903 4.06238 3.36903C3.96955 3.36903 3.81863 3.40384 3.69091 3.54336C3.56326 3.68282 3.20346 4.01976 3.20346 4.70537C3.20346 5.39099 3.70258 6.05333 3.77221 6.1463C3.84183 6.23927 4.75445 7.64621 6.15171 8.24949C6.48405 8.39314 6.74346 8.47877 6.94581 8.54297C7.27952 8.64899 7.58309 8.63402 7.82314 8.59817C8.0908 8.55814 8.64718 8.26117 8.76336 7.93584C8.87941 7.61043 8.87941 7.33159 8.84453 7.27343C8.80978 7.21534 8.71688 7.18053 8.57763 7.11076V7.11076Z" fill="black"/>
</svg>
