<svg width="24" height="24" viewBox="0 0 24 24" fill="none" xmlns="http://www.w3.org/2000/svg">
<path fill-rule="evenodd" clip-rule="evenodd" d="M20.9476 10.4775C20.9493 13.0443 20.0045 15.5218 18.2939 17.4356L23.8213 22.9568C23.9358 23.071 24 23.226 24 23.3877C24 23.5496 23.9358 23.7046 23.8213 23.8188C23.705 23.932 23.5493 23.9955 23.3871 23.9963C23.2245 23.9984 23.0678 23.9344 22.9529 23.8188L17.4319 18.2976C15.5181 20.0084 13.0406 20.9532 10.4738 20.9513C4.70179 20.9513 0 16.2493 0 10.4775C0 4.70569 4.69582 0.00366211 10.4738 0.00366211C16.2456 0.00366211 20.9476 4.69948 20.9476 10.4775ZM10.4678 1.22646C5.36854 1.22646 1.2168 5.3782 1.2168 10.4774C1.2168 15.5766 5.36854 19.7284 10.4678 19.7284C15.5672 19.7284 19.7187 15.5766 19.7187 10.4774C19.7187 5.3782 15.5672 1.22646 10.4678 1.22646Z" fill="black"/>
</svg>
