<svg width="12" height="13" viewBox="0 0 12 13" fill="none" xmlns="http://www.w3.org/2000/svg">
<g clip-path="url(#clip0)">
<g clip-path="url(#clip1)">
<path d="M6.00203 3.41901C4.30053 3.41901 2.92303 4.798 2.92303 6.498C2.92303 8.1995 4.30203 9.577 6.00203 9.577C7.70353 9.577 9.08103 8.198 9.08103 6.498C9.08103 4.7965 7.70203 3.41901 6.00203 3.41901V3.41901ZM6.00203 8.4965C4.89753 8.4965 4.00353 7.602 4.00353 6.498C4.00353 5.394 4.89803 4.49951 6.00203 4.49951C7.10603 4.49951 8.00053 5.394 8.00053 6.498C8.00103 7.602 7.10653 8.4965 6.00203 8.4965V8.4965Z" fill="#767676"/>
<path d="M8.47405 0.537998C7.37005 0.486499 4.63555 0.488999 3.53055 0.537998C2.55955 0.583498 1.70305 0.817998 1.01255 1.5085C-0.141447 2.6625 0.0060526 4.21749 0.0060526 6.49799C0.0060526 8.83199 -0.123947 10.351 1.01255 11.4875C2.17105 12.6455 3.74855 12.494 6.00205 12.494C8.31405 12.494 9.11205 12.4955 9.92955 12.179C11.0411 11.7475 11.8801 10.754 11.9621 8.96949C12.0141 7.86499 12.0111 5.13099 11.9621 4.02599C11.8631 1.9195 10.7326 0.641998 8.47405 0.537998V0.537998ZM10.2216 10.724C9.46505 11.4805 8.41555 11.413 5.98755 11.413C3.48755 11.413 2.48505 11.45 1.75355 10.7165C0.911053 9.87799 1.06355 8.53149 1.06355 6.48999C1.06355 3.72749 0.780053 1.738 3.55255 1.596C4.18955 1.5735 4.37705 1.566 5.98055 1.566L6.00305 1.581C8.66755 1.581 10.7581 1.302 10.8836 4.07399C10.9121 4.70649 10.9186 4.89649 10.9186 6.49749C10.9181 8.96849 10.9651 9.97699 10.2216 10.724V10.724Z" fill="#767676"/>
<path d="M9.20296 4.017C9.60033 4.017 9.92246 3.69487 9.92246 3.2975C9.92246 2.90013 9.60033 2.578 9.20296 2.578C8.80559 2.578 8.48346 2.90013 8.48346 3.2975C8.48346 3.69487 8.80559 4.017 9.20296 4.017Z" fill="#767676"/>
</g>
</g>
<defs>
<clipPath id="clip0">
<rect width="12" height="12" fill="white" transform="translate(0 0.5)"/>
</clipPath>
<clipPath id="clip1">
<rect width="12" height="12" fill="white" transform="translate(0 0.5)"/>
</clipPath>
</defs>
</svg>
