<?xml version="1.0" encoding="utf-8"?><svg viewBox="0 0 24 25" xmlns="http://www.w3.org/2000/svg" xmlns:xlink="http://www.w3.org/1999/xlink"><style>:root>svg{display:none}:root>svg:target{display:block}</style><svg fill="none" viewBox="0 0 12 12" id="icon-auction" xmlns="http://www.w3.org/2000/svg"><g clip-path="url(#aclip0)" fill="#000"><path d="M6.25 12H.75a.75.75 0 01-.75-.75v-.5A.75.75 0 01.75 10h5.5a.75.75 0 01.75.75v.5a.75.75 0 01-.75.75zm-5.5-1.5a.25.25 0 00-.25.25v.5c0 .137.112.25.25.25h5.5a.25.25 0 00.25-.25v-.5a.25.25 0 00-.25-.25H.75zM5.346 6.314a.434.434 0 01-.32-.126L3.273 4.433c-.307-.307.03-.838.14-1.012.208-.326.531-.715.911-1.095a6.86 6.86 0 011.096-.913c.175-.111.707-.449 1.014-.142l1.755 1.755c.307.308-.032.84-.143 1.014a6.872 6.872 0 01-.912 1.097c-.38.38-.77.703-1.095.91-.122.078-.419.267-.692.267zm.734-4.689c-.088.003-.636.288-1.402 1.052-.764.765-1.05 1.314-1.031 1.438l1.733 1.72c.088-.004.637-.289 1.402-1.054C7.52 4.045 7.81 3.51 7.814 3.36L6.08 1.625z"/><path d="M4.502 7.46a.745.745 0 01-.528-.219L2.218 5.486A.74.74 0 012 4.959c0-.2.078-.387.219-.528l.351-.351a.747.747 0 011.056 0L5.38 5.835a.747.747 0 010 1.055l-.35.351a.746.746 0 01-.529.219zM3.098 4.36a.248.248 0 00-.175.073l-.35.35a.244.244 0 000 .349l1.754 1.755a.247.247 0 00.349 0l.351-.351a.247.247 0 000-.348L3.272 4.434a.248.248 0 00-.174-.073zM8.363 3.598a.745.745 0 01-.528-.219L6.08 1.624a.747.747 0 010-1.055l.35-.35a.747.747 0 011.056 0l1.755 1.754a.747.747 0 010 1.056l-.351.351a.743.743 0 01-.527.218zM6.959.5a.247.247 0 00-.175.072l-.351.351a.246.246 0 000 .348l1.755 1.755a.248.248 0 00.348 0l.351-.35a.247.247 0 000-.349L7.132.572A.245.245 0 006.96.5zm2.105 2.352h.005-.005zM11.049 10.002c-.302 0-.627-.173-.971-.518-.345-.345-2.374-2.577-3.633-4.062a.25.25 0 11.381-.323c1.313 1.548 3.307 3.733 3.605 4.031.563.564.783.345.914.215.06-.06.142-.142.153-.26.018-.17-.11-.396-.367-.654-.296-.296-2.478-2.286-4.032-3.605a.25.25 0 11.324-.381c1.49 1.264 3.72 3.29 4.062 3.633.373.372.545.728.512 1.057-.03.295-.211.476-.298.563-.203.202-.42.303-.65.303z"/></g><defs><clipPath id="aclip0"><path fill="#fff" d="M0 0h12v12H0z"/></clipPath></defs></svg><svg fill="none" viewBox="0 0 24 24" id="icon-basket" xmlns="http://www.w3.org/2000/svg"><path fill-rule="evenodd" clip-rule="evenodd" d="M23.845 7.905a.538.538 0 00-.444-.146h-6.367V4.987c0-2.74-2.254-4.961-5.034-4.961s-5.034 2.22-5.034 4.96V7.76H.599c-.178 0-.355 0-.444.146a.492.492 0 00-.148.438l2.22 11.965c.31 1.669 1.773 2.89 3.495 2.918h12.556c1.727-.042 3.186-1.273 3.494-2.948l2.221-11.935a.492.492 0 00-.148-.438zM8.15 4.987c0-2.095 1.724-3.794 3.85-3.794 2.126 0 3.85 1.699 3.85 3.794v2.772h-7.7V4.987zm10.128 17.071a2.36 2.36 0 002.31-1.926L22.69 8.926H1.31l2.102 11.206a2.36 2.36 0 002.31 1.926h12.556z" fill="#000"/><path d="M16.4 14.426c.22 0 .4-.287.4-.64v-1.92c0-.354-.18-.64-.4-.64-.22 0-.4.286-.4.64v1.92c0 .353.18.64.4.64zM7.6 14.426c.22 0 .4-.287.4-.64v-1.92c0-.354-.18-.64-.4-.64-.221 0-.4.286-.4.64v1.92c0 .353.179.64.4.64z" fill="#000"/></svg><svg fill="none" viewBox="0 0 24 25" id="icon-close" xmlns="http://www.w3.org/2000/svg"><g clip-path="url(#cclip0)"><path d="M12.55 12.997L23.885 1.66a.387.387 0 00-.547-.547L12.002 12.45.665 1.113a.387.387 0 00-.547.547l11.337 11.337L.118 24.334a.387.387 0 10.547.548l11.337-11.337L23.34 24.882a.387.387 0 00.547-.548L12.55 12.997z" fill="#000"/></g><defs><clipPath id="cclip0"><path fill="#fff" transform="translate(0 1)" d="M0 0h24v24H0z"/></clipPath></defs></svg><svg fill="none" viewBox="0 0 7 12" id="icon-dropdown-arrow" xmlns="http://www.w3.org/2000/svg"><g clip-path="url(#dclip0)"><g clip-path="url(#dclip1)"><path d="M6.77 5.67L1.22.137a.465.465 0 00-.657.658L5.783 6l-5.22 5.206a.465.465 0 10.657.658L6.77 6.33a.465.465 0 000-.658z" fill="#000"/></g></g><defs><clipPath id="dclip0"><path fill="#fff" transform="matrix(0 1 1 0 .333 0)" d="M0 0h12v6.667H0z"/></clipPath><clipPath id="dclip1"><path fill="#fff" transform="translate(.333)" d="M0 0h6.667v12H0z"/></clipPath></defs></svg><svg fill="none" viewBox="0 0 12 12" id="icon-facebook" xmlns="http://www.w3.org/2000/svg"><g clip-path="url(#eclip0)"><path d="M7.999 1.992h1.095V.085A14.146 14.146 0 007.498 0c-1.58 0-2.661.994-2.661 2.82V4.5H3.094v2.133h1.743V12h2.137V6.633h1.672L8.912 4.5H6.973V3.031c0-.617.167-1.039 1.026-1.039z" fill="#000"/></g><defs><clipPath id="eclip0"><path fill="#fff" d="M0 0h12v12H0z"/></clipPath></defs></svg><svg fill="none" viewBox="0 0 12 13" id="icon-facebook-grey" xmlns="http://www.w3.org/2000/svg"><g clip-path="url(#fclip0)"><path d="M7.999 2.493h1.095V.585A14.146 14.146 0 007.498.5c-1.58 0-2.661.994-2.661 2.82V5H3.094v2.133h1.743V12.5h2.137V7.133h1.672L8.912 5H6.973V3.531c0-.617.167-1.038 1.026-1.038z" fill="#767676"/></g><defs><clipPath id="fclip0"><path fill="#fff" transform="translate(0 .5)" d="M0 0h12v12H0z"/></clipPath></defs></svg><svg fill="none" viewBox="0 0 24 24" id="icon-favorites" xmlns="http://www.w3.org/2000/svg"><path d="M12 22.363c-.342 0-.671-.123-.928-.348a279.2 279.2 0 00-2.729-2.348l-.004-.003c-2.418-2.06-4.506-3.84-5.959-5.593C.756 12.111 0 10.253 0 8.224 0 6.252.676 4.432 1.904 3.1a6.454 6.454 0 014.8-2.09c1.386 0 2.655.438 3.772 1.302.563.436 1.074.97 1.524 1.592.45-.623.96-1.156 1.525-1.592 1.117-.864 2.385-1.302 3.77-1.302 1.854 0 3.559.742 4.801 2.09C23.324 4.432 24 6.25 24 8.224c0 2.03-.756 3.887-2.38 5.847-1.453 1.753-3.54 3.532-5.958 5.592-.826.704-1.763 1.502-2.734 2.352a1.408 1.408 0 01-.928.348zM6.705 2.417a5.063 5.063 0 00-3.768 1.636c-.987 1.072-1.531 2.553-1.531 4.17 0 1.708.634 3.234 2.057 4.951 1.375 1.66 3.42 3.402 5.788 5.42l.004.003a280.89 280.89 0 012.743 2.36c.982-.856 1.922-1.657 2.752-2.364 2.368-2.017 4.413-3.76 5.788-5.419 1.422-1.716 2.056-3.243 2.056-4.95 0-1.618-.544-3.1-1.531-4.17a5.063 5.063 0 00-3.767-1.637c-1.067 0-2.047.339-2.911 1.008-.771.596-1.308 1.35-1.623 1.877a.88.88 0 01-.762.433.88.88 0 01-.762-.433c-.315-.527-.852-1.281-1.623-1.877a4.663 4.663 0 00-2.91-1.008z" fill="#000"/></svg><svg fill="none" viewBox="0 0 14 15" id="icon-info" xmlns="http://www.w3.org/2000/svg"><g clip-path="url(#hclip0)"><g clip-path="url(#hclip1)" fill="#000"><path d="M7.7 6.8H6.3V11h1.4V6.8z"/><path d="M7 .5c-3.867 0-7 3.133-7 7s3.133 7 7 7 7-3.133 7-7c0-3.868-3.133-7-7-7zm0 12.6a5.607 5.607 0 01-5.6-5.6c0-3.087 2.513-5.6 5.6-5.6 3.087 0 5.6 2.513 5.6 5.6 0 3.087-2.513 5.6-5.6 5.6z"/><path d="M7.7 4H6.3v1.4h1.4V4z"/></g></g><defs><clipPath id="hclip0"><path fill="#fff" transform="matrix(-1 0 0 1 14 .5)" d="M0 0h14v14H0z"/></clipPath><clipPath id="hclip1"><path fill="#fff" transform="translate(0 .5)" d="M0 0h14v14H0z"/></clipPath></defs></svg><svg fill="none" viewBox="0 0 13 13" id="icon-info-grey" xmlns="http://www.w3.org/2000/svg"><g clip-path="url(#iclip0)"><g clip-path="url(#iclip1)" fill="#979797"><path d="M6.678 5.9h-1.2v3.6h1.2V5.9z"/><path d="M6.078.5c-3.315 0-6 2.685-6 6s2.685 6 6 6 6-2.685 6-6-2.685-6-6-6zm0 10.8a4.806 4.806 0 01-4.8-4.8c0-2.646 2.154-4.8 4.8-4.8s4.8 2.154 4.8 4.8-2.154 4.8-4.8 4.8z"/><path d="M6.678 3.5h-1.2v1.2h1.2V3.5z"/></g></g><defs><clipPath id="iclip0"><path fill="#fff" transform="matrix(-1 0 0 1 12.078 .5)" d="M0 0h12v12H0z"/></clipPath><clipPath id="iclip1"><path fill="#fff" transform="translate(.078 .5)" d="M0 0h12v12H0z"/></clipPath></defs></svg><svg fill="none" viewBox="0 0 12 12" id="icon-instagram" xmlns="http://www.w3.org/2000/svg"><g clip-path="url(#jclip0)" fill="#000"><path d="M6.002 2.919a3.079 3.079 0 100 6.157 3.079 3.079 0 000-6.157zm0 5.077a1.998 1.998 0 11-.001-3.995 1.998 1.998 0 01.001 3.995z"/><path d="M8.474.038c-1.104-.052-3.838-.05-4.943 0-.971.045-1.828.28-2.518.97C-.141 2.162.006 3.718.006 5.998c0 2.334-.13 3.853 1.007 4.99 1.158 1.157 2.736 1.006 4.989 1.006 2.312 0 3.11.001 3.928-.315 1.111-.432 1.95-1.425 2.032-3.21.052-1.104.05-3.838 0-4.943-.099-2.107-1.23-3.384-3.488-3.488zm1.748 10.186c-.757.756-1.806.689-4.234.689-2.5 0-3.503.037-4.234-.697-.843-.838-.69-2.185-.69-4.226 0-2.763-.284-4.752 2.489-4.894.637-.023.824-.03 2.428-.03l.022.015c2.665 0 4.755-.28 4.88 2.493.03.632.036.822.036 2.423 0 2.471.046 3.48-.697 4.227z"/><path d="M9.203 3.517a.72.72 0 100-1.439.72.72 0 000 1.44z"/></g><defs><clipPath id="jclip0"><path fill="#fff" d="M0 0h12v12H0z"/></clipPath></defs></svg><svg fill="none" viewBox="0 0 12 13" id="icon-instagram-grey" xmlns="http://www.w3.org/2000/svg"><g clip-path="url(#kclip0)"><g clip-path="url(#kclip1)" fill="#767676"><path d="M6.002 3.419a3.079 3.079 0 100 6.157 3.079 3.079 0 000-6.157zm0 5.077a1.998 1.998 0 11-.001-3.995 1.998 1.998 0 01.001 3.995z"/><path d="M8.474.538C7.37.486 4.636.489 3.531.538c-.971.045-1.828.28-2.518.97C-.141 2.663.006 4.218.006 6.498c0 2.334-.13 3.853 1.007 4.99 1.158 1.158 2.736 1.006 4.989 1.006 2.312 0 3.11.002 3.928-.315 1.111-.431 1.95-1.425 2.032-3.21.052-1.104.05-3.838 0-4.943C11.863 1.92 10.732.642 8.474.538zm1.748 10.186c-.757.756-1.806.689-4.234.689-2.5 0-3.503.037-4.234-.697-.843-.838-.69-2.185-.69-4.226 0-2.763-.284-4.752 2.489-4.894.637-.023.824-.03 2.428-.03l.022.015c2.665 0 4.755-.279 4.88 2.493.03.632.036.822.036 2.423 0 2.471.046 3.48-.697 4.227z"/><path d="M9.203 4.017a.72.72 0 100-1.439.72.72 0 000 1.439z"/></g></g><defs><clipPath id="kclip0"><path fill="#fff" transform="translate(0 .5)" d="M0 0h12v12H0z"/></clipPath><clipPath id="kclip1"><path fill="#fff" transform="translate(0 .5)" d="M0 0h12v12H0z"/></clipPath></defs></svg><svg fill="none" viewBox="0 0 13 12" id="icon-more" xmlns="http://www.w3.org/2000/svg"><g clip-path="url(#lclip0)" fill="#000"><path d="M1.7 7.2a1.2 1.2 0 100-2.4 1.2 1.2 0 000 2.4zM6.5 7.2a1.2 1.2 0 100-2.4 1.2 1.2 0 000 2.4zM11.3 7.2a1.2 1.2 0 100-2.4 1.2 1.2 0 000 2.4z"/></g><defs><clipPath id="lclip0"><path fill="#fff" transform="translate(.5)" d="M0 0h12v12H0z"/></clipPath></defs></svg><svg fill="none" viewBox="0 0 12 12" id="icon-profile" xmlns="http://www.w3.org/2000/svg"><g clip-path="url(#mclip0)" fill="#000"><path d="M5.914 5.78c.795 0 1.482-.284 2.044-.846s.847-1.25.847-2.044S8.52 1.41 7.958.847A2.797 2.797 0 005.914 0C5.12 0 4.433.285 3.871.847a2.797 2.797 0 00-.847 2.043c0 .794.285 1.482.847 2.044s1.25.846 2.043.846zM4.368 1.344c.431-.431.937-.64 1.546-.64.61 0 1.116.209 1.547.64.43.431.64.937.64 1.546 0 .61-.21 1.115-.64 1.546a2.09 2.09 0 01-1.547.641 2.09 2.09 0 01-1.546-.64 2.09 2.09 0 01-.64-1.547c0-.61.209-1.115.64-1.546zM10.972 9.227a7.125 7.125 0 00-.098-.758 5.968 5.968 0 00-.186-.762 3.767 3.767 0 00-.313-.711 2.683 2.683 0 00-.473-.616 2.084 2.084 0 00-.679-.427 2.346 2.346 0 00-.866-.156c-.123 0-.241.05-.47.199-.141.092-.306.198-.49.315-.157.1-.37.194-.633.28a2.514 2.514 0 01-.774.124c-.257 0-.518-.042-.775-.125a2.795 2.795 0 01-.632-.279 67.08 67.08 0 01-.49-.315c-.229-.15-.347-.2-.47-.2-.312 0-.603.053-.866.157a2.082 2.082 0 00-.68.427 2.68 2.68 0 00-.472.616c-.13.23-.235.468-.313.71a7.089 7.089 0 00-.284 1.52c-.016.23-.024.47-.024.71 0 .627.2 1.134.592 1.508.388.369.901.556 1.525.556H8.88c.624 0 1.137-.187 1.525-.556.393-.374.592-.881.592-1.508 0-.242-.008-.48-.024-.709zm-1.053 1.707c-.256.244-.596.363-1.04.363H3.101c-.444 0-.784-.119-1.04-.363-.251-.239-.373-.565-.373-.998 0-.225.007-.447.022-.66a6.398 6.398 0 01.252-1.355c.063-.196.148-.39.255-.578.101-.178.218-.332.347-.455.12-.115.273-.21.452-.28.165-.066.351-.102.553-.108.025.013.069.038.14.085a65 65 0 00.495.32c.208.132.476.251.795.354.327.106.66.16.99.16.332 0 .665-.054.992-.16.32-.103.587-.222.795-.355.188-.12.35-.225.495-.32.07-.045.115-.07.14-.084.202.006.388.042.553.107.18.071.331.166.452.281.129.123.246.277.347.455.107.187.193.382.255.578.066.205.121.431.164.672.044.245.074.475.088.683.015.213.023.435.023.66 0 .433-.122.76-.374.998z"/></g><defs><clipPath id="mclip0"><path fill="#fff" d="M0 0h12v12H0z"/></clipPath></defs></svg><svg fill="none" viewBox="0 0 14 14" id="icon-route" xmlns="http://www.w3.org/2000/svg"><g clip-path="url(#nclip0)"><path d="M13.194.045L.364 5.295c-.54.22-.457 1.009.116 1.113l6.019 1.094 1.094 6.019c.105.574.893.656 1.114.116L13.956.806a.583.583 0 00-.761-.761zM8.383 11.347l-.81-4.45a.583.583 0 00-.47-.47l-4.45-.81 9.696-3.966-3.966 9.696z" fill="#000"/></g><defs><clipPath id="nclip0"><path fill="#fff" d="M0 0h14v14H0z"/></clipPath></defs></svg><svg fill="none" viewBox="0 0 24 24" id="icon-search" xmlns="http://www.w3.org/2000/svg"><path fill-rule="evenodd" clip-rule="evenodd" d="M20.948 10.477a10.43 10.43 0 01-2.654 6.959l5.527 5.52a.608.608 0 01-.434 1.04.601.601 0 01-.434-.177l-5.521-5.521a10.429 10.429 0 01-6.958 2.653C4.702 20.951 0 16.25 0 10.477 0 4.706 4.696.004 10.474.004c5.772 0 10.474 4.695 10.474 10.473zm-10.48-9.25c-5.1 0-9.251 4.151-9.251 9.25 0 5.1 4.152 9.251 9.25 9.251 5.1 0 9.252-4.151 9.252-9.25 0-5.1-4.152-9.252-9.251-9.252z" fill="#000"/></svg><svg fill="none" viewBox="0 0 16 14" id="icon-search-grey" xmlns="http://www.w3.org/2000/svg"><path fill-rule="evenodd" clip-rule="evenodd" d="M13.221 6.112c.001 1.497-.55 2.943-1.548 4.06l3.225 3.221a.355.355 0 01-.253.607.35.35 0 01-.254-.104l-3.221-3.221a6.085 6.085 0 01-4.06 1.548A6.121 6.121 0 01.997 6.112 6.119 6.119 0 017.109 0a6.119 6.119 0 016.112 6.112zM7.106.714a5.405 5.405 0 00-5.398 5.398 5.405 5.405 0 005.398 5.398 5.405 5.405 0 005.398-5.398A5.405 5.405 0 007.106.714z" fill="#ABABAB"/></svg><svg fill="none" viewBox="0 0 13 12" id="icon-sell" xmlns="http://www.w3.org/2000/svg"><g clip-path="url(#qclip0)" fill="#000"><path d="M6.5 0c-3.309 0-6 2.691-6 6s2.691 6 6 6 6-2.692 6-6-2.691-6-6-6zm0 11.07A5.076 5.076 0 011.43 6 5.076 5.076 0 016.5.93 5.076 5.076 0 0111.57 6a5.076 5.076 0 01-5.07 5.07z"/><path d="M8.824 5.493h-1.86V3.634a.465.465 0 10-.929 0v1.86H4.176a.465.465 0 100 .929h1.86v1.859a.465.465 0 10.929 0V6.423h1.859a.465.465 0 100-.93z"/></g><defs><clipPath id="qclip0"><path fill="#fff" transform="translate(.5)" d="M0 0h12v12H0z"/></clipPath></defs></svg><svg fill="none" viewBox="0 0 12 12" id="icon-shop" xmlns="http://www.w3.org/2000/svg"><path d="M10.387 10.364L9.75 3.341A.376.376 0 009.375 3H8.25v-.75c0-.603-.234-1.17-.657-1.593A2.253 2.253 0 003.75 2.25V3H2.625a.375.375 0 00-.374.341l-.638 7.023A1.503 1.503 0 003.107 12h5.786a1.503 1.503 0 001.494-1.636zM4.5 2.25a1.502 1.502 0 012.562-1.063c.283.282.438.66.438 1.063V3h-3v-.75zm4.947 8.756a.745.745 0 01-.555.244H3.107a.74.74 0 01-.554-.245.74.74 0 01-.192-.573l.606-6.682h.783v1.125a.375.375 0 00.75 0V3.75h3v1.125a.375.375 0 00.75 0V3.75h.782l.607 6.682a.74.74 0 01-.192.574z" fill="#000"/></svg><svg fill="none" viewBox="0 0 13 12" id="icon-star" xmlns="http://www.w3.org/2000/svg"><path d="M3.186 11.75a.636.636 0 01-.622-.78l.772-3.4L.718 5.272a.637.637 0 01.362-1.116l3.464-.314L5.914.638a.638.638 0 011.172 0l1.37 3.205 3.464.314a.637.637 0 01.362 1.116L9.664 7.57l.772 3.4a.638.638 0 01-.949.69L6.5 9.872 3.513 11.66a.639.639 0 01-.327.09zM6.5 9.104a.64.64 0 01.327.09l2.82 1.687-.73-3.21a.638.638 0 01.203-.621l2.472-2.168-3.271-.297a.637.637 0 01-.53-.387L6.5 1.174 5.207 4.199a.635.635 0 01-.528.385l-3.271.297L3.88 7.049a.636.636 0 01.202.622l-.728 3.21 2.819-1.686a.64.64 0 01.327-.09zm-1.983-5.2v.002-.001zm3.964 0h.001z" fill="#000"/></svg><svg fill="none" viewBox="0 0 12 12" id="icon-telegram" xmlns="http://www.w3.org/2000/svg"><g clip-path="url(#tclip0)"><path d="M4.709 7.59l-.199 2.793c.284 0 .407-.122.555-.269l1.331-1.273 2.759 2.021c.506.282.863.133.999-.466l1.811-8.486c.161-.748-.27-1.04-.763-.857L.557 5.128c-.726.282-.715.687-.123.871l2.721.846L9.477 2.89c.297-.197.567-.088.345.109L4.709 7.59z" fill="#000"/></g><defs><clipPath id="tclip0"><path fill="#fff" d="M0 0h12v12H0z"/></clipPath></defs></svg><svg fill="none" viewBox="0 0 12 13" id="icon-telegram-grey" xmlns="http://www.w3.org/2000/svg"><g clip-path="url(#uclip0)"><path d="M4.709 8.09l-.199 2.793c.284 0 .407-.122.555-.269l1.331-1.273 2.759 2.021c.506.282.863.133.999-.466l1.811-8.486c.161-.748-.27-1.04-.763-.857L.557 5.628c-.726.282-.715.687-.123.871l2.721.846L9.477 3.39c.297-.197.567-.088.345.109L4.709 8.09z" fill="#767676"/></g><defs><clipPath id="uclip0"><path fill="#fff" transform="translate(0 .5)" d="M0 0h12v12H0z"/></clipPath></defs></svg><svg fill="none" viewBox="0 0 12 12" id="icon-whatsapp" xmlns="http://www.w3.org/2000/svg"><path fill-rule="evenodd" clip-rule="evenodd" d="M9.98 2.004A5.538 5.538 0 006.035.369 5.582 5.582 0 00.461 5.943c0 .983.257 1.942.744 2.787l-.79 2.89 2.955-.776a5.569 5.569 0 002.664.679h.002c3.073 0 5.574-2.501 5.575-5.575a5.54 5.54 0 00-1.632-3.944zm-3.944 8.577h-.002a4.628 4.628 0 01-2.358-.646l-.17-.1-1.753.46.468-1.71-.11-.175a4.622 4.622 0 01-.708-2.466A4.64 4.64 0 016.038 1.31c1.238 0 2.4.483 3.276 1.358a4.606 4.606 0 011.356 3.279 4.64 4.64 0 01-4.634 4.633zm2.542-3.47c-.14-.07-.824-.407-.952-.453-.128-.047-.22-.07-.314.07-.092.139-.36.453-.44.545-.082.093-.163.105-.302.035-.14-.07-.589-.217-1.12-.691a4.202 4.202 0 01-.775-.965c-.082-.14-.001-.208.06-.284.151-.187.302-.384.349-.477.046-.093.023-.174-.012-.244s-.313-.755-.43-1.034c-.112-.272-.227-.235-.313-.24a5.569 5.569 0 00-.267-.004.512.512 0 00-.371.174c-.128.14-.488.477-.488 1.162 0 .686.5 1.348.57 1.441.069.093.981 1.5 2.379 2.103.332.144.591.23.794.294.334.106.637.091.877.055.268-.04.824-.337.94-.662.116-.326.116-.604.082-.663-.035-.058-.128-.092-.267-.162z" fill="#000"/></svg></svg>