<?xml version="1.0" encoding="utf-8"?><svg viewBox="0 0 24 24" xmlns="http://www.w3.org/2000/svg" xmlns:xlink="http://www.w3.org/1999/xlink"><style>:root>svg{display:none}:root>svg:target{display:block}</style><svg fill="none" viewBox="0 0 24 24" id="icon-basket" xmlns="http://www.w3.org/2000/svg"><path fill-rule="evenodd" clip-rule="evenodd" d="M23.845 7.905a.538.538 0 00-.444-.146h-6.367V4.987c0-2.74-2.254-4.961-5.034-4.961s-5.034 2.22-5.034 4.96V7.76H.599c-.178 0-.355 0-.444.146a.492.492 0 00-.148.438l2.22 11.965c.31 1.669 1.773 2.89 3.495 2.918h12.556c1.727-.042 3.186-1.273 3.494-2.948l2.221-11.935a.492.492 0 00-.148-.438zM8.15 4.987c0-2.095 1.724-3.794 3.85-3.794 2.126 0 3.85 1.699 3.85 3.794v2.772h-7.7V4.987zm10.128 17.071a2.36 2.36 0 002.31-1.926L22.69 8.926H1.31l2.102 11.206a2.36 2.36 0 002.31 1.926h12.556z" fill="#000"/><path d="M16.4 14.426c.22 0 .4-.287.4-.64v-1.92c0-.354-.18-.64-.4-.64-.22 0-.4.286-.4.64v1.92c0 .353.18.64.4.64zM7.6 14.426c.22 0 .4-.287.4-.64v-1.92c0-.354-.18-.64-.4-.64-.221 0-.4.286-.4.64v1.92c0 .353.179.64.4.64z" fill="#000"/></svg><svg fill="none" viewBox="0 0 7 12" id="icon-dropdown-arrow" xmlns="http://www.w3.org/2000/svg"><g clip-path="url(#bclip0)"><g clip-path="url(#bclip1)"><path d="M6.77 5.67L1.22.137a.465.465 0 00-.657.658L5.783 6l-5.22 5.206a.465.465 0 10.657.658L6.77 6.33a.465.465 0 000-.658z" fill="#000"/></g></g><defs><clipPath id="bclip0"><path fill="#fff" transform="matrix(0 1 1 0 .333 0)" d="M0 0h12v6.667H0z"/></clipPath><clipPath id="bclip1"><path fill="#fff" transform="translate(.333)" d="M0 0h6.667v12H0z"/></clipPath></defs></svg><svg fill="none" viewBox="0 0 12 12" id="icon-facebook" xmlns="http://www.w3.org/2000/svg"><g clip-path="url(#cclip0)"><path d="M7.999 1.992h1.095V.085A14.146 14.146 0 007.498 0c-1.58 0-2.661.994-2.661 2.82V4.5H3.094v2.133h1.743V12h2.137V6.633h1.672L8.912 4.5H6.973V3.031c0-.617.167-1.039 1.026-1.039z" fill="#000"/></g><defs><clipPath id="cclip0"><path fill="#fff" d="M0 0h12v12H0z"/></clipPath></defs></svg><svg fill="none" viewBox="0 0 12 13" id="icon-facebook-grey" xmlns="http://www.w3.org/2000/svg"><g clip-path="url(#dclip0)"><path d="M7.999 2.493h1.095V.585A14.146 14.146 0 007.498.5c-1.58 0-2.661.994-2.661 2.82V5H3.094v2.133h1.743V12.5h2.137V7.133h1.672L8.912 5H6.973V3.531c0-.617.167-1.038 1.026-1.038z" fill="#767676"/></g><defs><clipPath id="dclip0"><path fill="#fff" transform="translate(0 .5)" d="M0 0h12v12H0z"/></clipPath></defs></svg><svg fill="none" viewBox="0 0 24 24" id="icon-favorites" xmlns="http://www.w3.org/2000/svg"><path d="M12 22.363c-.342 0-.671-.123-.928-.348a279.2 279.2 0 00-2.729-2.348l-.004-.003c-2.418-2.06-4.506-3.84-5.959-5.593C.756 12.111 0 10.253 0 8.224 0 6.252.676 4.432 1.904 3.1a6.454 6.454 0 014.8-2.09c1.386 0 2.655.438 3.772 1.302.563.436 1.074.97 1.524 1.592.45-.623.96-1.156 1.525-1.592 1.117-.864 2.385-1.302 3.77-1.302 1.854 0 3.559.742 4.801 2.09C23.324 4.432 24 6.25 24 8.224c0 2.03-.756 3.887-2.38 5.847-1.453 1.753-3.54 3.532-5.958 5.592-.826.704-1.763 1.502-2.734 2.352a1.408 1.408 0 01-.928.348zM6.705 2.417a5.063 5.063 0 00-3.768 1.636c-.987 1.072-1.531 2.553-1.531 4.17 0 1.708.634 3.234 2.057 4.951 1.375 1.66 3.42 3.402 5.788 5.42l.004.003a280.89 280.89 0 012.743 2.36c.982-.856 1.922-1.657 2.752-2.364 2.368-2.017 4.413-3.76 5.788-5.419 1.422-1.716 2.056-3.243 2.056-4.95 0-1.618-.544-3.1-1.531-4.17a5.063 5.063 0 00-3.767-1.637c-1.067 0-2.047.339-2.911 1.008-.771.596-1.308 1.35-1.623 1.877a.88.88 0 01-.762.433.88.88 0 01-.762-.433c-.315-.527-.852-1.281-1.623-1.877a4.663 4.663 0 00-2.91-1.008z" fill="#000"/></svg><svg fill="none" viewBox="0 0 14 15" id="icon-info" xmlns="http://www.w3.org/2000/svg"><g clip-path="url(#fclip0)"><g clip-path="url(#fclip1)" fill="#000"><path d="M7.7 6.8H6.3V11h1.4V6.8z"/><path d="M7 .5c-3.867 0-7 3.133-7 7s3.133 7 7 7 7-3.133 7-7c0-3.868-3.133-7-7-7zm0 12.6a5.607 5.607 0 01-5.6-5.6c0-3.087 2.513-5.6 5.6-5.6 3.087 0 5.6 2.513 5.6 5.6 0 3.087-2.513 5.6-5.6 5.6z"/><path d="M7.7 4H6.3v1.4h1.4V4z"/></g></g><defs><clipPath id="fclip0"><path fill="#fff" transform="matrix(-1 0 0 1 14 .5)" d="M0 0h14v14H0z"/></clipPath><clipPath id="fclip1"><path fill="#fff" transform="translate(0 .5)" d="M0 0h14v14H0z"/></clipPath></defs></svg><svg fill="none" viewBox="0 0 13 13" id="icon-info-grey" xmlns="http://www.w3.org/2000/svg"><g clip-path="url(#gclip0)"><g clip-path="url(#gclip1)" fill="#979797"><path d="M6.678 5.9h-1.2v3.6h1.2V5.9z"/><path d="M6.078.5c-3.315 0-6 2.685-6 6s2.685 6 6 6 6-2.685 6-6-2.685-6-6-6zm0 10.8a4.806 4.806 0 01-4.8-4.8c0-2.646 2.154-4.8 4.8-4.8s4.8 2.154 4.8 4.8-2.154 4.8-4.8 4.8z"/><path d="M6.678 3.5h-1.2v1.2h1.2V3.5z"/></g></g><defs><clipPath id="gclip0"><path fill="#fff" transform="matrix(-1 0 0 1 12.078 .5)" d="M0 0h12v12H0z"/></clipPath><clipPath id="gclip1"><path fill="#fff" transform="translate(.078 .5)" d="M0 0h12v12H0z"/></clipPath></defs></svg><svg fill="none" viewBox="0 0 12 12" id="icon-instagram" xmlns="http://www.w3.org/2000/svg"><g clip-path="url(#hclip0)" fill="#000"><path d="M6.002 2.919a3.079 3.079 0 100 6.157 3.079 3.079 0 000-6.157zm0 5.077a1.998 1.998 0 11-.001-3.995 1.998 1.998 0 01.001 3.995z"/><path d="M8.474.038c-1.104-.052-3.838-.05-4.943 0-.971.045-1.828.28-2.518.97C-.141 2.162.006 3.718.006 5.998c0 2.334-.13 3.853 1.007 4.99 1.158 1.157 2.736 1.006 4.989 1.006 2.312 0 3.11.001 3.928-.315 1.111-.432 1.95-1.425 2.032-3.21.052-1.104.05-3.838 0-4.943-.099-2.107-1.23-3.384-3.488-3.488zm1.748 10.186c-.757.756-1.806.689-4.234.689-2.5 0-3.503.037-4.234-.697-.843-.838-.69-2.185-.69-4.226 0-2.763-.284-4.752 2.489-4.894.637-.023.824-.03 2.428-.03l.022.015c2.665 0 4.755-.28 4.88 2.493.03.632.036.822.036 2.423 0 2.471.046 3.48-.697 4.227z"/><path d="M9.203 3.517a.72.72 0 100-1.439.72.72 0 000 1.44z"/></g><defs><clipPath id="hclip0"><path fill="#fff" d="M0 0h12v12H0z"/></clipPath></defs></svg><svg fill="none" viewBox="0 0 12 13" id="icon-instagram-grey" xmlns="http://www.w3.org/2000/svg"><g clip-path="url(#iclip0)"><g clip-path="url(#iclip1)" fill="#767676"><path d="M6.002 3.419a3.079 3.079 0 100 6.157 3.079 3.079 0 000-6.157zm0 5.077a1.998 1.998 0 11-.001-3.995 1.998 1.998 0 01.001 3.995z"/><path d="M8.474.538C7.37.486 4.636.489 3.531.538c-.971.045-1.828.28-2.518.97C-.141 2.663.006 4.218.006 6.498c0 2.334-.13 3.853 1.007 4.99 1.158 1.158 2.736 1.006 4.989 1.006 2.312 0 3.11.002 3.928-.315 1.111-.431 1.95-1.425 2.032-3.21.052-1.104.05-3.838 0-4.943C11.863 1.92 10.732.642 8.474.538zm1.748 10.186c-.757.756-1.806.689-4.234.689-2.5 0-3.503.037-4.234-.697-.843-.838-.69-2.185-.69-4.226 0-2.763-.284-4.752 2.489-4.894.637-.023.824-.03 2.428-.03l.022.015c2.665 0 4.755-.279 4.88 2.493.03.632.036.822.036 2.423 0 2.471.046 3.48-.697 4.227z"/><path d="M9.203 4.017a.72.72 0 100-1.439.72.72 0 000 1.439z"/></g></g><defs><clipPath id="iclip0"><path fill="#fff" transform="translate(0 .5)" d="M0 0h12v12H0z"/></clipPath><clipPath id="iclip1"><path fill="#fff" transform="translate(0 .5)" d="M0 0h12v12H0z"/></clipPath></defs></svg><svg fill="none" viewBox="0 0 14 14" id="icon-route" xmlns="http://www.w3.org/2000/svg"><g clip-path="url(#jclip0)"><path d="M13.194.045L.364 5.295c-.54.22-.457 1.009.116 1.113l6.019 1.094 1.094 6.019c.105.574.893.656 1.114.116L13.956.806a.583.583 0 00-.761-.761zM8.383 11.347l-.81-4.45a.583.583 0 00-.47-.47l-4.45-.81 9.696-3.966-3.966 9.696z" fill="#000"/></g><defs><clipPath id="jclip0"><path fill="#fff" d="M0 0h14v14H0z"/></clipPath></defs></svg><svg fill="none" viewBox="0 0 24 24" id="icon-search" xmlns="http://www.w3.org/2000/svg"><path fill-rule="evenodd" clip-rule="evenodd" d="M20.948 10.477a10.43 10.43 0 01-2.654 6.959l5.527 5.52a.608.608 0 01-.434 1.04.601.601 0 01-.434-.177l-5.521-5.521a10.429 10.429 0 01-6.958 2.653C4.702 20.951 0 16.25 0 10.477 0 4.706 4.696.004 10.474.004c5.772 0 10.474 4.695 10.474 10.473zm-10.48-9.25c-5.1 0-9.251 4.151-9.251 9.25 0 5.1 4.152 9.251 9.25 9.251 5.1 0 9.252-4.151 9.252-9.25 0-5.1-4.152-9.252-9.251-9.252z" fill="#000"/></svg><svg fill="none" viewBox="0 0 16 14" id="icon-search-grey" xmlns="http://www.w3.org/2000/svg"><path fill-rule="evenodd" clip-rule="evenodd" d="M13.221 6.112c.001 1.497-.55 2.943-1.548 4.06l3.225 3.221a.355.355 0 01-.253.607.35.35 0 01-.254-.104l-3.221-3.221a6.085 6.085 0 01-4.06 1.548A6.121 6.121 0 01.997 6.112 6.119 6.119 0 017.109 0a6.119 6.119 0 016.112 6.112zM7.106.714a5.405 5.405 0 00-5.398 5.398 5.405 5.405 0 005.398 5.398 5.405 5.405 0 005.398-5.398A5.405 5.405 0 007.106.714z" fill="#ABABAB"/></svg><svg fill="none" viewBox="0 0 12 12" id="icon-telegram" xmlns="http://www.w3.org/2000/svg"><g clip-path="url(#mclip0)"><path d="M4.709 7.59l-.199 2.793c.284 0 .407-.122.555-.269l1.331-1.273 2.759 2.021c.506.282.863.133.999-.466l1.811-8.486c.161-.748-.27-1.04-.763-.857L.557 5.128c-.726.282-.715.687-.123.871l2.721.846L9.477 2.89c.297-.197.567-.088.345.109L4.709 7.59z" fill="#000"/></g><defs><clipPath id="mclip0"><path fill="#fff" d="M0 0h12v12H0z"/></clipPath></defs></svg><svg fill="none" viewBox="0 0 12 13" id="icon-telegram-grey" xmlns="http://www.w3.org/2000/svg"><g clip-path="url(#nclip0)"><path d="M4.709 8.09l-.199 2.793c.284 0 .407-.122.555-.269l1.331-1.273 2.759 2.021c.506.282.863.133.999-.466l1.811-8.486c.161-.748-.27-1.04-.763-.857L.557 5.628c-.726.282-.715.687-.123.871l2.721.846L9.477 3.39c.297-.197.567-.088.345.109L4.709 8.09z" fill="#767676"/></g><defs><clipPath id="nclip0"><path fill="#fff" transform="translate(0 .5)" d="M0 0h12v12H0z"/></clipPath></defs></svg></svg>