<?xml version="1.0" encoding="utf-8"?><svg viewBox="0 0 512 512" xmlns="http://www.w3.org/2000/svg" xmlns:xlink="http://www.w3.org/1999/xlink"><style>:root>svg{display:none}:root>svg:target{display:block}</style><svg fill="none" viewBox="0 0 9 16" id="icon-arrow-back" xmlns="http://www.w3.org/2000/svg"><g clip-path="url(#aaclip0)"><g clip-path="url(#aaclip1)"><path d="M.417 8.44l7.4 7.38a.62.62 0 00.877-.88L1.734 8l6.96-6.94A.62.62 0 107.818.18l-7.4 7.38a.62.62 0 000 .878z" fill="#000"/></g></g><defs><clipPath id="aaclip0"><path fill="#fff" transform="matrix(0 -1 -1 0 9 16)" d="M0 0h16v8.889H0z"/></clipPath><clipPath id="aaclip1"><path fill="#fff" transform="rotate(-180 4.5 8)" d="M0 0h8.889v16H0z"/></clipPath></defs></svg><svg fill="none" viewBox="0 0 12 12" id="icon-auction" xmlns="http://www.w3.org/2000/svg"><g clip-path="url(#abclip0)" fill="#000"><path d="M6.25 12H.75a.75.75 0 01-.75-.75v-.5A.75.75 0 01.75 10h5.5a.75.75 0 01.75.75v.5a.75.75 0 01-.75.75zm-5.5-1.5a.25.25 0 00-.25.25v.5c0 .137.112.25.25.25h5.5a.25.25 0 00.25-.25v-.5a.25.25 0 00-.25-.25H.75zM5.346 6.314a.434.434 0 01-.32-.126L3.273 4.433c-.307-.307.03-.838.14-1.012.208-.326.531-.715.911-1.095a6.86 6.86 0 011.096-.913c.175-.111.707-.449 1.014-.142l1.755 1.755c.307.308-.032.84-.143 1.014a6.872 6.872 0 01-.912 1.097c-.38.38-.77.703-1.095.91-.122.078-.419.267-.692.267zm.734-4.689c-.088.003-.636.288-1.402 1.052-.764.765-1.05 1.314-1.031 1.438l1.733 1.72c.088-.004.637-.289 1.402-1.054C7.52 4.045 7.81 3.51 7.814 3.36L6.08 1.625z"/><path d="M4.502 7.46a.745.745 0 01-.528-.219L2.218 5.486A.74.74 0 012 4.959c0-.2.078-.387.219-.528l.351-.351a.747.747 0 011.056 0L5.38 5.835a.747.747 0 010 1.055l-.35.351a.746.746 0 01-.529.219zM3.098 4.36a.248.248 0 00-.175.073l-.35.35a.244.244 0 000 .349l1.754 1.755a.247.247 0 00.349 0l.351-.351a.247.247 0 000-.348L3.272 4.434a.248.248 0 00-.174-.073zM8.363 3.598a.745.745 0 01-.528-.219L6.08 1.624a.747.747 0 010-1.055l.35-.35a.747.747 0 011.056 0l1.755 1.754a.747.747 0 010 1.056l-.351.351a.743.743 0 01-.527.218zM6.959.5a.247.247 0 00-.175.072l-.351.351a.246.246 0 000 .348l1.755 1.755a.248.248 0 00.348 0l.351-.35a.247.247 0 000-.349L7.132.572A.245.245 0 006.96.5zm2.105 2.352h.005-.005zM11.049 10.002c-.302 0-.627-.173-.971-.518-.345-.345-2.374-2.577-3.633-4.062a.25.25 0 11.381-.323c1.313 1.548 3.307 3.733 3.605 4.031.563.564.783.345.914.215.06-.06.142-.142.153-.26.018-.17-.11-.396-.367-.654-.296-.296-2.478-2.286-4.032-3.605a.25.25 0 11.324-.381c1.49 1.264 3.72 3.29 4.062 3.633.373.372.545.728.512 1.057-.03.295-.211.476-.298.563-.203.202-.42.303-.65.303z"/></g><defs><clipPath id="abclip0"><path fill="#fff" d="M0 0h12v12H0z"/></clipPath></defs></svg><svg fill="none" viewBox="0 0 50 50" id="icon-badge" xmlns="http://www.w3.org/2000/svg"><path d="M42.73 27.854c.799-.8 1.704-1.707 1.704-2.854s-.905-2.053-1.703-2.852c-.537-.538-1.092-1.093-1.22-1.571-.137-.514.07-1.297.27-2.054.297-1.123.604-2.285.051-3.24-.561-.97-1.731-1.286-2.863-1.59-.747-.202-1.52-.411-1.885-.775-.364-.365-.572-1.137-.774-1.885-.305-1.133-.62-2.301-1.59-2.863-.956-.552-2.118-.246-3.242.05-.758.2-1.541.407-2.055.27-.478-.127-1.033-.682-1.571-1.219-.799-.8-1.705-1.705-2.852-1.705-1.147 0-2.053.905-2.852 1.703-.538.537-1.093 1.092-1.571 1.22-.514.136-1.297-.07-2.055-.27-1.124-.297-2.284-.604-3.24-.051-.97.561-1.285 1.731-1.59 2.863-.202.747-.41 1.52-.775 1.885-.364.364-1.137.572-1.885.774-1.132.305-2.301.62-2.862 1.59-.553.955-.246 2.117.05 3.24.2.758.407 1.54.27 2.055-.13.48-.684 1.034-1.22 1.573-.799.8-1.704 1.707-1.704 2.854s.905 2.053 1.704 2.854c.536.537 1.09 1.093 1.218 1.571.138.514-.07 1.297-.27 2.055-.296 1.123-.603 2.284-.05 3.24.561.969 1.731 1.285 2.863 1.59.747.201 1.52.41 1.884.774.364.365.573 1.138.775 1.885.305 1.133.62 2.301 1.59 2.863.955.553 2.118.246 3.24-.05.758-.2 1.54-.408 2.055-.27.478.127 1.034.682 1.572 1.219.8.798 1.706 1.703 2.851 1.703 1.146 0 2.054-.905 2.854-1.703.538-.537 1.094-1.092 1.571-1.22.514-.137 1.298.07 2.055.27 1.123.297 2.284.604 3.24.051.97-.561 1.285-1.731 1.59-2.863.202-.747.41-1.52.775-1.885.364-.364 1.137-.572 1.885-.774 1.132-.305 2.3-.62 2.862-1.59.553-.956.247-2.117-.05-3.242-.2-.758-.407-1.54-.27-2.055.13-.48.684-1.034 1.22-1.572zm-2.27 3.974c.225.856.459 1.74.188 2.207-.278.481-1.171.722-2.035.955-.92.248-1.873.505-2.495 1.128-.623.622-.88 1.574-1.128 2.495-.235.864-.474 1.758-.955 2.036-.469.27-1.351.036-2.206-.19-.93-.245-1.892-.498-2.757-.268-.831.222-1.52.908-2.184 1.572-.643.64-1.307 1.303-1.888 1.303s-1.245-.664-1.887-1.303c-.665-.664-1.353-1.35-2.185-1.572a2.852 2.852 0 00-.739-.091 8.153 8.153 0 00-2.017.36c-.856.225-1.74.458-2.207.188-.481-.278-.722-1.171-.955-2.035-.248-.92-.505-1.873-1.128-2.495-.622-.623-1.575-.88-2.495-1.128-.864-.235-1.758-.474-2.035-.955-.27-.469-.037-1.351.189-2.206.245-.93.5-1.892.268-2.757-.222-.831-.908-1.52-1.572-2.184-.64-.643-1.303-1.307-1.303-1.888s.664-1.245 1.303-1.888c.664-.664 1.35-1.353 1.572-2.184.232-.865-.023-1.827-.268-2.757-.226-.855-.46-1.739-.19-2.206.28-.481 1.172-.722 2.036-.955.92-.248 1.875-.505 2.495-1.128.621-.622.88-1.574 1.128-2.495.235-.864.474-1.758.955-2.036.466-.27 1.351-.036 2.207.19.93.246 1.892.5 2.756.268.832-.222 1.52-.908 2.184-1.572.643-.64 1.307-1.303 1.888-1.303s1.245.664 1.888 1.303c.664.664 1.353 1.35 2.184 1.572.865.231 1.827-.022 2.756-.268.856-.226 1.74-.46 2.207-.19.481.28.722 1.172.955 2.036.248.92.505 1.875 1.128 2.495.622.621 1.574.88 2.495 1.128.864.235 1.758.474 2.036.955.27.469.036 1.351-.19 2.207-.245.93-.5 1.89-.268 2.756.222.831.908 1.52 1.572 2.184.64.643 1.303 1.307 1.303 1.888s-.664 1.245-1.303 1.888c-.664.664-1.35 1.353-1.572 2.184-.23.865.023 1.826.268 2.756z" fill="#454545"/><path d="M33.887 19.6L21.8 31.835l-5.688-5.758 1.418-1.436 4.27 4.313 10.668-10.79 1.418 1.434z" fill="#454545"/></svg><svg fill="none" viewBox="0 0 24 24" id="icon-basket" xmlns="http://www.w3.org/2000/svg"><path fill-rule="evenodd" clip-rule="evenodd" d="M23.845 7.905a.538.538 0 00-.444-.146h-6.367V4.987c0-2.74-2.254-4.961-5.034-4.961s-5.034 2.22-5.034 4.96V7.76H.599c-.178 0-.355 0-.444.146a.492.492 0 00-.148.438l2.22 11.965c.31 1.669 1.773 2.89 3.495 2.918h12.556c1.727-.042 3.186-1.273 3.494-2.948l2.221-11.935a.492.492 0 00-.148-.438zM8.15 4.987c0-2.095 1.724-3.794 3.85-3.794 2.126 0 3.85 1.699 3.85 3.794v2.772h-7.7V4.987zm10.128 17.071a2.36 2.36 0 002.31-1.926L22.69 8.926H1.31l2.102 11.206a2.36 2.36 0 002.31 1.926h12.556z" fill="#000"/><path d="M16.4 14.426c.22 0 .4-.287.4-.64v-1.92c0-.354-.18-.64-.4-.64-.22 0-.4.286-.4.64v1.92c0 .353.18.64.4.64zM7.6 14.426c.22 0 .4-.287.4-.64v-1.92c0-.354-.18-.64-.4-.64-.221 0-.4.286-.4.64v1.92c0 .353.179.64.4.64z" fill="#000"/></svg><svg fill="none" viewBox="0 0 13 7" id="icon-caret" xmlns="http://www.w3.org/2000/svg"><path d="M6.33 6.604l5.53-5.551a.45.45 0 000-.657.456.456 0 00-.65 0L6 5.616.79.396A.456.456 0 00.14.395a.474.474 0 00-.14.33c0 .119.05.237.14.328l5.53 5.551A.48.48 0 006 6.74a.48.48 0 00.33-.136z" fill="#ABABAB"/></svg><svg fill="none" viewBox="0 0 8 6" id="icon-caret-black" xmlns="http://www.w3.org/2000/svg"><g clip-path="url(#afclip0)"><g clip-path="url(#afclip1)"><path d="M4.22 5.07l3.69-3.701A.31.31 0 007.47.93L4 4.411.53.93a.31.31 0 10-.44.438l3.69 3.7a.31.31 0 00.44 0z" fill="#000"/></g></g><defs><clipPath id="afclip0"><path fill="#fff" transform="matrix(-1 0 0 1 8 .778)" d="M0 0h8v4.444H0z"/></clipPath><clipPath id="afclip1"><path fill="#fff" transform="rotate(90 3.611 4.389)" d="M0 0h4.444v8H0z"/></clipPath></defs></svg><svg fill="none" viewBox="0 0 24 24" id="icon-chat" xmlns="http://www.w3.org/2000/svg"><path d="M12.055 0c-.007.006-.02.006-.039.006C5.51.006.216 5.3.216 11.806c0 2.656.907 5.234 2.566 7.311l-1.717 3.987a.64.64 0 00.335.843.654.654 0 00.366.044l6.295-1.105c1.26.456 2.585.688 3.923.681 6.507 0 11.8-5.292 11.8-11.8C23.796 5.28 18.543.008 12.054 0zm-.065 22.288c-1.24 0-2.469-.226-3.633-.663a.617.617 0 00-.34-.032l-5.3.926 1.403-3.26a.647.647 0 00-.103-.675 10.281 10.281 0 01-1.788-2.971 10.456 10.456 0 01-.72-3.813c0-5.8 4.72-10.514 10.514-10.514 5.78-.013 10.474 4.662 10.481 10.443v.039c0 5.806-4.72 10.52-10.514 10.52z" fill="#5F5F5F"/><path d="M11.489 9.433H8.016a.645.645 0 00-.643.643c0 .354.29.643.643.643h3.473c.353 0 .643-.29.643-.643a.645.645 0 00-.643-.643zM15.99 12.648H8.016a.645.645 0 00-.643.643c0 .354.29.643.643.643h7.974c.354 0 .643-.29.643-.643a.645.645 0 00-.643-.643z" fill="#5F5F5F"/></svg><svg fill="none" viewBox="0 0 10 8" id="icon-checkbox-mark" xmlns="http://www.w3.org/2000/svg"><path d="M9.853.475a.5.5 0 00-.707 0l-5.99 5.99L.853 4.162a.5.5 0 00-.707.707l2.656 2.657a.5.5 0 00.707 0l6.344-6.344a.5.5 0 000-.707z" fill="#ABABAB"/></svg><svg fill="none" viewBox="0 0 14 12" id="icon-checkbox-mark-black" xmlns="http://www.w3.org/2000/svg"><path d="M13.794 1.064a.7.7 0 00-.99 0L4.419 9.451 1.194 6.227a.7.7 0 00-.99.99l3.72 3.719a.7.7 0 00.99 0l8.88-8.882a.7.7 0 000-.99z" fill="#343434"/></svg><svg fill="none" viewBox="0 0 24 25" id="icon-close" xmlns="http://www.w3.org/2000/svg"><g clip-path="url(#ajclip0)"><path d="M12.55 12.997L23.885 1.66a.387.387 0 00-.547-.547L12.002 12.45.665 1.113a.387.387 0 00-.547.547l11.337 11.337L.118 24.334a.387.387 0 10.547.548l11.337-11.337L23.34 24.882a.387.387 0 00.547-.548L12.55 12.997z" fill="#000"/></g><defs><clipPath id="ajclip0"><path fill="#fff" transform="translate(0 1)" d="M0 0h24v24H0z"/></clipPath></defs></svg><svg fill="none" viewBox="0 0 7 12" id="icon-dropdown-arrow" xmlns="http://www.w3.org/2000/svg"><g clip-path="url(#akclip0)"><g clip-path="url(#akclip1)"><path d="M6.77 5.67L1.22.137a.465.465 0 00-.657.658L5.783 6l-5.22 5.206a.465.465 0 10.657.658L6.77 6.33a.465.465 0 000-.658z" fill="#000"/></g></g><defs><clipPath id="akclip0"><path fill="#fff" transform="matrix(0 1 1 0 .333 0)" d="M0 0h12v6.667H0z"/></clipPath><clipPath id="akclip1"><path fill="#fff" transform="translate(.333)" d="M0 0h6.667v12H0z"/></clipPath></defs></svg><svg fill="none" viewBox="0 0 12 12" id="icon-facebook" xmlns="http://www.w3.org/2000/svg"><g clip-path="url(#alclip0)"><path d="M7.999 1.992h1.095V.085A14.146 14.146 0 007.498 0c-1.58 0-2.661.994-2.661 2.82V4.5H3.094v2.133h1.743V12h2.137V6.633h1.672L8.912 4.5H6.973V3.031c0-.617.167-1.039 1.026-1.039z" fill="#000"/></g><defs><clipPath id="alclip0"><path fill="#fff" d="M0 0h12v12H0z"/></clipPath></defs></svg><svg fill="none" viewBox="0 0 12 13" id="icon-facebook-grey" xmlns="http://www.w3.org/2000/svg"><g clip-path="url(#amclip0)"><path d="M7.999 2.493h1.095V.585A14.146 14.146 0 007.498.5c-1.58 0-2.661.994-2.661 2.82V5H3.094v2.133h1.743V12.5h2.137V7.133h1.672L8.912 5H6.973V3.531c0-.617.167-1.038 1.026-1.038z" fill="#767676"/></g><defs><clipPath id="amclip0"><path fill="#fff" transform="translate(0 .5)" d="M0 0h12v12H0z"/></clipPath></defs></svg><svg viewBox="0 -28 512.001 512" id="icon-favorites" xmlns="http://www.w3.org/2000/svg"><path d="M256 455.516c-7.29 0-14.316-2.641-19.793-7.438-20.684-18.086-40.625-35.082-58.219-50.074l-.09-.078c-51.582-43.957-96.125-81.918-127.117-119.313C16.137 236.81 0 197.172 0 153.871c0-42.07 14.426-80.883 40.617-109.293C67.121 15.832 103.488 0 143.031 0c29.555 0 56.621 9.344 80.446 27.77C235.5 37.07 246.398 48.453 256 61.73c9.605-13.277 20.5-24.66 32.527-33.96C312.352 9.344 339.418 0 368.973 0c39.539 0 75.91 15.832 102.414 44.578C497.578 72.988 512 111.801 512 153.871c0 43.3-16.133 82.938-50.777 124.738-30.993 37.399-75.532 75.356-127.106 119.309-17.625 15.016-37.597 32.039-58.328 50.168a30.046 30.046 0 01-19.789 7.43zM143.031 29.992c-31.066 0-59.605 12.399-80.367 34.914-21.07 22.856-32.676 54.45-32.676 88.965 0 36.418 13.535 68.988 43.883 105.606 29.332 35.394 72.961 72.574 123.477 115.625l.093.078c17.66 15.05 37.68 32.113 58.516 50.332 20.961-18.254 41.012-35.344 58.707-50.418 50.512-43.051 94.137-80.223 123.469-115.617 30.344-36.618 43.879-69.188 43.879-105.606 0-34.516-11.606-66.11-32.676-88.965-20.758-22.515-49.3-34.914-80.363-34.914-22.758 0-43.653 7.235-62.102 21.5-16.441 12.719-27.894 28.797-34.61 40.047-3.452 5.785-9.53 9.238-16.261 9.238s-12.809-3.453-16.262-9.238c-6.71-11.25-18.164-27.328-34.61-40.047-18.448-14.265-39.343-21.5-62.097-21.5zm0 0"/></svg><svg fill="none" viewBox="0 0 14 14" id="icon-gift-box" xmlns="http://www.w3.org/2000/svg"><g clip-path="url(#aoclip0)"><path d="M13.659 2.542H10.43c.354-.52.389-1.222.031-1.786A1.628 1.628 0 008.218.252c-.191.121-.511.405-1.074 1.464-.05.094-.099.187-.144.277-.045-.09-.094-.183-.144-.277C6.293.657 5.973.373 5.782.252a1.628 1.628 0 00-2.214 2.29H.34v3.971h.48V14h12.358V6.513h.48v-3.97zM8.657.945a.8.8 0 01.608-.106.807.807 0 01.255 1.467c-.227.144-1.055.224-1.879.236.364-.74.79-1.454 1.016-1.597zm-4.426.25a.803.803 0 011.112-.25c.226.143.652.857 1.016 1.597-.412-.006-.825-.03-1.164-.068-.338-.04-.601-.096-.714-.167a.8.8 0 01-.356-.504.8.8 0 01.106-.608zM5.34 13.18h-3.7V6.513h3.7v6.667zm0-7.487H1.16v-2.33h4.18v2.33zm2.498 7.487H6.16V3.363h1.68v9.817zm4.52 0h-3.7V6.513h3.7v6.667zm.48-7.487h-4.18v-2.33h4.18v2.33z" fill="#710202"/></g><defs><clipPath id="aoclip0"><path fill="#fff" d="M0 0h14v14H0z"/></clipPath></defs></svg><svg fill="none" viewBox="0 0 14 15" id="icon-info" xmlns="http://www.w3.org/2000/svg"><g clip-path="url(#apclip0)"><g clip-path="url(#apclip1)" fill="#000"><path d="M7.7 6.8H6.3V11h1.4V6.8z"/><path d="M7 .5c-3.867 0-7 3.133-7 7s3.133 7 7 7 7-3.133 7-7c0-3.868-3.133-7-7-7zm0 12.6a5.607 5.607 0 01-5.6-5.6c0-3.087 2.513-5.6 5.6-5.6 3.087 0 5.6 2.513 5.6 5.6 0 3.087-2.513 5.6-5.6 5.6z"/><path d="M7.7 4H6.3v1.4h1.4V4z"/></g></g><defs><clipPath id="apclip0"><path fill="#fff" transform="matrix(-1 0 0 1 14 .5)" d="M0 0h14v14H0z"/></clipPath><clipPath id="apclip1"><path fill="#fff" transform="translate(0 .5)" d="M0 0h14v14H0z"/></clipPath></defs></svg><svg fill="none" viewBox="0 0 13 13" id="icon-info-grey" xmlns="http://www.w3.org/2000/svg"><g clip-path="url(#aqclip0)"><g clip-path="url(#aqclip1)" fill="#979797"><path d="M6.678 5.9h-1.2v3.6h1.2V5.9z"/><path d="M6.078.5c-3.315 0-6 2.685-6 6s2.685 6 6 6 6-2.685 6-6-2.685-6-6-6zm0 10.8a4.806 4.806 0 01-4.8-4.8c0-2.646 2.154-4.8 4.8-4.8s4.8 2.154 4.8 4.8-2.154 4.8-4.8 4.8z"/><path d="M6.678 3.5h-1.2v1.2h1.2V3.5z"/></g></g><defs><clipPath id="aqclip0"><path fill="#fff" transform="matrix(-1 0 0 1 12.078 .5)" d="M0 0h12v12H0z"/></clipPath><clipPath id="aqclip1"><path fill="#fff" transform="translate(.078 .5)" d="M0 0h12v12H0z"/></clipPath></defs></svg><svg fill="none" viewBox="0 0 12 12" id="icon-instagram" xmlns="http://www.w3.org/2000/svg"><g clip-path="url(#arclip0)" fill="#000"><path d="M6.002 2.919a3.079 3.079 0 100 6.157 3.079 3.079 0 000-6.157zm0 5.077a1.998 1.998 0 11-.001-3.995 1.998 1.998 0 01.001 3.995z"/><path d="M8.474.038c-1.104-.052-3.838-.05-4.943 0-.971.045-1.828.28-2.518.97C-.141 2.162.006 3.718.006 5.998c0 2.334-.13 3.853 1.007 4.99 1.158 1.157 2.736 1.006 4.989 1.006 2.312 0 3.11.001 3.928-.315 1.111-.432 1.95-1.425 2.032-3.21.052-1.104.05-3.838 0-4.943-.099-2.107-1.23-3.384-3.488-3.488zm1.748 10.186c-.757.756-1.806.689-4.234.689-2.5 0-3.503.037-4.234-.697-.843-.838-.69-2.185-.69-4.226 0-2.763-.284-4.752 2.489-4.894.637-.023.824-.03 2.428-.03l.022.015c2.665 0 4.755-.28 4.88 2.493.03.632.036.822.036 2.423 0 2.471.046 3.48-.697 4.227z"/><path d="M9.203 3.517a.72.72 0 100-1.439.72.72 0 000 1.44z"/></g><defs><clipPath id="arclip0"><path fill="#fff" d="M0 0h12v12H0z"/></clipPath></defs></svg><svg fill="none" viewBox="0 0 12 13" id="icon-instagram-grey" xmlns="http://www.w3.org/2000/svg"><g clip-path="url(#asclip0)"><g clip-path="url(#asclip1)" fill="#767676"><path d="M6.002 3.419a3.079 3.079 0 100 6.157 3.079 3.079 0 000-6.157zm0 5.077a1.998 1.998 0 11-.001-3.995 1.998 1.998 0 01.001 3.995z"/><path d="M8.474.538C7.37.486 4.636.489 3.531.538c-.971.045-1.828.28-2.518.97C-.141 2.663.006 4.218.006 6.498c0 2.334-.13 3.853 1.007 4.99 1.158 1.158 2.736 1.006 4.989 1.006 2.312 0 3.11.002 3.928-.315 1.111-.431 1.95-1.425 2.032-3.21.052-1.104.05-3.838 0-4.943C11.863 1.92 10.732.642 8.474.538zm1.748 10.186c-.757.756-1.806.689-4.234.689-2.5 0-3.503.037-4.234-.697-.843-.838-.69-2.185-.69-4.226 0-2.763-.284-4.752 2.489-4.894.637-.023.824-.03 2.428-.03l.022.015c2.665 0 4.755-.279 4.88 2.493.03.632.036.822.036 2.423 0 2.471.046 3.48-.697 4.227z"/><path d="M9.203 4.017a.72.72 0 100-1.439.72.72 0 000 1.439z"/></g></g><defs><clipPath id="asclip0"><path fill="#fff" transform="translate(0 .5)" d="M0 0h12v12H0z"/></clipPath><clipPath id="asclip1"><path fill="#fff" transform="translate(0 .5)" d="M0 0h12v12H0z"/></clipPath></defs></svg><svg fill="none" viewBox="0 0 20 15" id="icon-measurements" xmlns="http://www.w3.org/2000/svg"><path d="M19.576 9.237h-5.937V5.05c0-2.752-3.061-4.992-6.838-4.992S-.037 2.298-.037 5.05v4.947c0 2.534 2.595 4.625 5.937 4.943h.068c.278.024.56.044.845.044h12.763c.221 0 .402-.18.402-.402V9.64a.402.402 0 00-.402-.402zM6.82.867c3.318 0 6.034 1.878 6.034 4.187 0 2.308-2.7 4.187-6.034 4.187C3.487 9.24.788 7.362.788 5.054.788 2.744 3.507.866 6.82.866zm6.034 6.532v1.838H10.52a6.065 6.065 0 002.313-1.838h.02zm6.318 6.781h-.804v-2.035a.402.402 0 00-.805 0v2.039h-1.608v-1.106a.402.402 0 00-.805 0v1.106h-1.609v-1.106a.402.402 0 00-.804 0v1.106h-1.61v-2.04a.402.402 0 00-.804 0v2.04h-1.54v-1.106a.402.402 0 00-.805 0v1.106H6.371v-1.106a.402.402 0 00-.805 0v1.01C2.851 13.684.808 12.003.808 9.992V7.399C1.958 8.97 4.223 10.04 6.84 10.04h12.332v4.139z" fill="#767676"/></svg><svg fill="none" viewBox="0 0 13 12" id="icon-more" xmlns="http://www.w3.org/2000/svg"><g clip-path="url(#auclip0)" fill="#000"><path d="M1.7 7.2a1.2 1.2 0 100-2.4 1.2 1.2 0 000 2.4zM6.5 7.2a1.2 1.2 0 100-2.4 1.2 1.2 0 000 2.4zM11.3 7.2a1.2 1.2 0 100-2.4 1.2 1.2 0 000 2.4z"/></g><defs><clipPath id="auclip0"><path fill="#fff" transform="translate(.5)" d="M0 0h12v12H0z"/></clipPath></defs></svg><svg fill="none" viewBox="0 0 18 18" id="icon-password-eye" xmlns="http://www.w3.org/2000/svg"><path d="M15.815 7.43L17 8.605M12.737 9.76l.735 1.49m3.072-5.724c-3.76 6.634-11.327 6.634-15.088 0M9 10.5v1.659" stroke="#1B1B1B" stroke-linecap="round"/><path d="M2.185 7.428L1 8.6m4.263 1.156l-.735 1.49M1.456 5.524c3.761 6.634 11.327 6.634 15.088 0M9 10.498v1.659" stroke="#1B1B1B" stroke-linecap="round"/></svg><svg fill="none" viewBox="0 0 12 12" id="icon-profile" xmlns="http://www.w3.org/2000/svg"><g clip-path="url(#awclip0)" fill="#000"><path d="M5.914 5.78c.795 0 1.482-.284 2.044-.846s.847-1.25.847-2.044S8.52 1.41 7.958.847A2.797 2.797 0 005.914 0C5.12 0 4.433.285 3.871.847a2.797 2.797 0 00-.847 2.043c0 .794.285 1.482.847 2.044s1.25.846 2.043.846zM4.368 1.344c.431-.431.937-.64 1.546-.64.61 0 1.116.209 1.547.64.43.431.64.937.64 1.546 0 .61-.21 1.115-.64 1.546a2.09 2.09 0 01-1.547.641 2.09 2.09 0 01-1.546-.64 2.09 2.09 0 01-.64-1.547c0-.61.209-1.115.64-1.546zM10.972 9.227a7.125 7.125 0 00-.098-.758 5.968 5.968 0 00-.186-.762 3.767 3.767 0 00-.313-.711 2.683 2.683 0 00-.473-.616 2.084 2.084 0 00-.679-.427 2.346 2.346 0 00-.866-.156c-.123 0-.241.05-.47.199-.141.092-.306.198-.49.315-.157.1-.37.194-.633.28a2.514 2.514 0 01-.774.124c-.257 0-.518-.042-.775-.125a2.795 2.795 0 01-.632-.279 67.08 67.08 0 01-.49-.315c-.229-.15-.347-.2-.47-.2-.312 0-.603.053-.866.157a2.082 2.082 0 00-.68.427 2.68 2.68 0 00-.472.616c-.13.23-.235.468-.313.71a7.089 7.089 0 00-.284 1.52c-.016.23-.024.47-.024.71 0 .627.2 1.134.592 1.508.388.369.901.556 1.525.556H8.88c.624 0 1.137-.187 1.525-.556.393-.374.592-.881.592-1.508 0-.242-.008-.48-.024-.709zm-1.053 1.707c-.256.244-.596.363-1.04.363H3.101c-.444 0-.784-.119-1.04-.363-.251-.239-.373-.565-.373-.998 0-.225.007-.447.022-.66a6.398 6.398 0 01.252-1.355c.063-.196.148-.39.255-.578.101-.178.218-.332.347-.455.12-.115.273-.21.452-.28.165-.066.351-.102.553-.108.025.013.069.038.14.085a65 65 0 00.495.32c.208.132.476.251.795.354.327.106.66.16.99.16.332 0 .665-.054.992-.16.32-.103.587-.222.795-.355.188-.12.35-.225.495-.32.07-.045.115-.07.14-.084.202.006.388.042.553.107.18.071.331.166.452.281.129.123.246.277.347.455.107.187.193.382.255.578.066.205.121.431.164.672.044.245.074.475.088.683.015.213.023.435.023.66 0 .433-.122.76-.374.998z"/></g><defs><clipPath id="awclip0"><path fill="#fff" d="M0 0h12v12H0z"/></clipPath></defs></svg><svg fill="none" viewBox="0 0 14 14" id="icon-route" xmlns="http://www.w3.org/2000/svg"><g clip-path="url(#axclip0)"><path d="M13.194.045L.364 5.295c-.54.22-.457 1.009.116 1.113l6.019 1.094 1.094 6.019c.105.574.893.656 1.114.116L13.956.806a.583.583 0 00-.761-.761zM8.383 11.347l-.81-4.45a.583.583 0 00-.47-.47l-4.45-.81 9.696-3.966-3.966 9.696z" fill="#000"/></g><defs><clipPath id="axclip0"><path fill="#fff" d="M0 0h14v14H0z"/></clipPath></defs></svg><svg fill="none" viewBox="0 0 12 12" id="icon-search" xmlns="http://www.w3.org/2000/svg"><path fill-rule="evenodd" clip-rule="evenodd" d="M10.474 5.239a5.218 5.218 0 01-1.327 3.48l2.764 2.761a.304.304 0 01-.217.52.3.3 0 01-.218-.089L8.716 9.15a5.213 5.213 0 01-3.48 1.327A5.246 5.246 0 010 5.239 5.244 5.244 0 015.237 0a5.244 5.244 0 015.237 5.239zM5.234.612A4.633 4.633 0 00.608 5.238a4.633 4.633 0 004.626 4.627 4.632 4.632 0 004.625-4.627A4.632 4.632 0 005.234.612z" fill="#000"/></svg><svg fill="none" viewBox="0 0 16 14" id="icon-search-grey" xmlns="http://www.w3.org/2000/svg"><path fill-rule="evenodd" clip-rule="evenodd" d="M13.221 6.112c.001 1.497-.55 2.943-1.548 4.06l3.225 3.221a.355.355 0 01-.253.607.35.35 0 01-.254-.104l-3.221-3.221a6.085 6.085 0 01-4.06 1.548A6.121 6.121 0 01.997 6.112 6.119 6.119 0 017.109 0a6.119 6.119 0 016.112 6.112zM7.106.714a5.405 5.405 0 00-5.398 5.398 5.405 5.405 0 005.398 5.398 5.405 5.405 0 005.398-5.398A5.405 5.405 0 007.106.714z" fill="#ABABAB"/></svg><svg fill="none" viewBox="0 0 13 12" id="icon-sell" xmlns="http://www.w3.org/2000/svg"><g clip-path="url(#baclip0)" fill="#000"><path d="M6.5 0c-3.309 0-6 2.691-6 6s2.691 6 6 6 6-2.692 6-6-2.691-6-6-6zm0 11.07A5.076 5.076 0 011.43 6 5.076 5.076 0 016.5.93 5.076 5.076 0 0111.57 6a5.076 5.076 0 01-5.07 5.07z"/><path d="M8.824 5.493h-1.86V3.634a.465.465 0 10-.929 0v1.86H4.176a.465.465 0 100 .929h1.86v1.859a.465.465 0 10.929 0V6.423h1.859a.465.465 0 100-.93z"/></g><defs><clipPath id="baclip0"><path fill="#fff" transform="translate(.5)" d="M0 0h12v12H0z"/></clipPath></defs></svg><svg fill="none" viewBox="0 0 12 12" id="icon-shop" xmlns="http://www.w3.org/2000/svg"><path d="M10.387 10.364L9.75 3.341A.376.376 0 009.375 3H8.25v-.75c0-.603-.234-1.17-.657-1.593A2.253 2.253 0 003.75 2.25V3H2.625a.375.375 0 00-.374.341l-.638 7.023A1.503 1.503 0 003.107 12h5.786a1.503 1.503 0 001.494-1.636zM4.5 2.25a1.502 1.502 0 012.562-1.063c.283.282.438.66.438 1.063V3h-3v-.75zm4.947 8.756a.745.745 0 01-.555.244H3.107a.74.74 0 01-.554-.245.74.74 0 01-.192-.573l.606-6.682h.783v1.125a.375.375 0 00.75 0V3.75h3v1.125a.375.375 0 00.75 0V3.75h.782l.607 6.682a.74.74 0 01-.192.574z" fill="#000"/></svg><svg fill="none" viewBox="0 0 13 12" id="icon-star" xmlns="http://www.w3.org/2000/svg"><path d="M3.186 11.75a.636.636 0 01-.622-.78l.772-3.4L.718 5.272a.637.637 0 01.362-1.116l3.464-.314L5.914.638a.638.638 0 011.172 0l1.37 3.205 3.464.314a.637.637 0 01.362 1.116L9.664 7.57l.772 3.4a.638.638 0 01-.949.69L6.5 9.872 3.513 11.66a.639.639 0 01-.327.09zM6.5 9.104a.64.64 0 01.327.09l2.82 1.687-.73-3.21a.638.638 0 01.203-.621l2.472-2.168-3.271-.297a.637.637 0 01-.53-.387L6.5 1.174 5.207 4.199a.635.635 0 01-.528.385l-3.271.297L3.88 7.049a.636.636 0 01.202.622l-.728 3.21 2.819-1.686a.64.64 0 01.327-.09zm-1.983-5.2v.002-.001zm3.964 0h.001z" fill="#000"/></svg><svg fill="none" viewBox="0 0 12 12" id="icon-telegram" xmlns="http://www.w3.org/2000/svg"><g clip-path="url(#bdclip0)"><path d="M4.709 7.59l-.199 2.793c.284 0 .407-.122.555-.269l1.331-1.273 2.759 2.021c.506.282.863.133.999-.466l1.811-8.486c.161-.748-.27-1.04-.763-.857L.557 5.128c-.726.282-.715.687-.123.871l2.721.846L9.477 2.89c.297-.197.567-.088.345.109L4.709 7.59z" fill="#000"/></g><defs><clipPath id="bdclip0"><path fill="#fff" d="M0 0h12v12H0z"/></clipPath></defs></svg><svg fill="none" viewBox="0 0 12 13" id="icon-telegram-grey" xmlns="http://www.w3.org/2000/svg"><g clip-path="url(#beclip0)"><path d="M4.709 8.09l-.199 2.793c.284 0 .407-.122.555-.269l1.331-1.273 2.759 2.021c.506.282.863.133.999-.466l1.811-8.486c.161-.748-.27-1.04-.763-.857L.557 5.628c-.726.282-.715.687-.123.871l2.721.846L9.477 3.39c.297-.197.567-.088.345.109L4.709 8.09z" fill="#767676"/></g><defs><clipPath id="beclip0"><path fill="#fff" transform="translate(0 .5)" d="M0 0h12v12H0z"/></clipPath></defs></svg><svg fill="none" viewBox="0 0 12 12" id="icon-whatsapp" xmlns="http://www.w3.org/2000/svg"><path fill-rule="evenodd" clip-rule="evenodd" d="M9.98 2.004A5.538 5.538 0 006.035.369 5.582 5.582 0 00.461 5.943c0 .983.257 1.942.744 2.787l-.79 2.89 2.955-.776a5.569 5.569 0 002.664.679h.002c3.073 0 5.574-2.501 5.575-5.575a5.54 5.54 0 00-1.632-3.944zm-3.944 8.577h-.002a4.628 4.628 0 01-2.358-.646l-.17-.1-1.753.46.468-1.71-.11-.175a4.622 4.622 0 01-.708-2.466A4.64 4.64 0 016.038 1.31c1.238 0 2.4.483 3.276 1.358a4.606 4.606 0 011.356 3.279 4.64 4.64 0 01-4.634 4.633zm2.542-3.47c-.14-.07-.824-.407-.952-.453-.128-.047-.22-.07-.314.07-.092.139-.36.453-.44.545-.082.093-.163.105-.302.035-.14-.07-.589-.217-1.12-.691a4.202 4.202 0 01-.775-.965c-.082-.14-.001-.208.06-.284.151-.187.302-.384.349-.477.046-.093.023-.174-.012-.244s-.313-.755-.43-1.034c-.112-.272-.227-.235-.313-.24a5.569 5.569 0 00-.267-.004.512.512 0 00-.371.174c-.128.14-.488.477-.488 1.162 0 .686.5 1.348.57 1.441.069.093.981 1.5 2.379 2.103.332.144.591.23.794.294.334.106.637.091.877.055.268-.04.824-.337.94-.662.116-.326.116-.604.082-.663-.035-.058-.128-.092-.267-.162z" fill="#000"/></svg></svg>